<svg width="39" height="39" viewBox="0 0 39 39" fill="none" xmlns="http://www.w3.org/2000/svg">
<circle cx="19.5" cy="19.5" r="18.5" fill="white" stroke="#E2DCD8" stroke-width="2"/>
<path d="M19.5007 13.7027C19.7918 13.7027 20.0277 13.9387 20.0277 14.2297V19.1073H24.9053C25.1963 19.1073 25.4323 19.3433 25.4323 19.6343C25.4323 19.9254 25.1964 20.1614 24.9053 20.1614H20.0277V25.0338C20.0277 25.3248 19.7918 25.5608 19.5007 25.5608C19.2096 25.5608 18.9737 25.3248 18.9737 25.0338V20.1614H14.1012C13.8102 20.1614 13.5742 19.9254 13.5742 19.6343C13.5743 19.3433 13.8102 19.1073 14.1012 19.1073H18.9737V14.2297C18.9737 13.9387 19.2096 13.7027 19.5007 13.7027Z" fill="#AC9175"/>
</svg>
