<svg width="41" height="44" viewBox="0 0 41 44" fill="none" xmlns="http://www.w3.org/2000/svg">
<path d="M25.5 26C26.8807 26 28 24.6569 28 23C28 21.3431 26.8807 20 25.5 20C24.1193 20 23 21.3431 23 23C23 24.6569 24.1193 26 25.5 26Z" fill="black"/>
<path d="M15 26C16.6569 26 18 24.6569 18 23C18 21.3431 16.6569 20 15 20C13.3431 20 12 21.3431 12 23C12 24.6569 13.3431 26 15 26Z" fill="black"/>
<path d="M39.1663 19.0476C38.7431 18.6766 37.9908 18.1664 36.9094 18.0273C36.9564 16.2648 36.9094 14.3633 36.7683 12.0907C36.1101 2.72192 29.6216 1.97984 20.5 1.97984C15.0459 1.97984 11.1433 0.959483 8.83945 0.078266C8.4633 -0.0608736 7.99312 -0.0144937 7.61697 0.217406C7.24083 0.449305 7.00573 0.773964 6.95872 1.19138C6.9117 1.56242 6.9117 1.93346 6.95872 2.3045C6.77064 2.25812 6.58257 2.16536 6.3945 2.11898C6.01835 1.97984 5.6422 2.02622 5.26606 2.21174C4.93693 2.39726 4.65482 2.72192 4.6078 3.09296C4.32569 4.53073 4.37271 6.43231 4.84289 8.7513C4.51376 9.77166 4.32569 10.8848 4.23165 12.0907C4.0906 14.3169 4.04358 16.2648 4.0906 18.0273C3.00917 18.2128 2.3039 18.6766 1.83372 19.0476C0.611239 20.1144 0 21.8768 0 24.2886C0 27.4424 1.2695 29.344 3.80849 29.9469C4.6078 34.2138 7.47592 38.1561 12.1307 41.4027C14.5757 43.1188 17.4908 44 20.5 44C23.5092 44 26.4243 43.0724 28.8693 41.4027C33.5241 38.1561 36.3922 34.2138 37.1915 29.9469C39.6835 29.2976 41 27.396 41 24.2886C41 21.8304 40.3888 20.1144 39.1663 19.0476ZM35.7339 26.6076C34.6995 26.7003 33.8532 27.5351 33.7592 28.6019C33.383 32.2659 31.0321 35.5589 26.8005 38.5272C23.039 41.1244 17.961 41.1244 14.1995 38.5272C9.96789 35.6052 7.66399 32.2659 7.24083 28.6019C7.14679 27.5815 6.30046 26.7467 5.21904 26.6539C4.18463 26.5612 3.62041 26.4684 3.62041 24.3349C3.62041 22.4797 4.04358 21.8768 4.23165 21.7377C4.27867 21.6913 4.37271 21.6449 4.56078 21.5985C4.65482 22.4797 4.74885 23.1291 4.84289 23.5465C5.03096 24.2422 5.97133 24.5205 6.86468 24.5205C7.61697 24.4741 8.41628 24.2422 8.51032 23.5929C8.55734 23.4073 8.55734 23.1291 8.55734 22.6653C8.55734 21.413 8.55734 19.2332 9.12156 16.8678C9.54472 15.1981 11.2374 14.2705 12.93 14.6415C15.1399 15.1517 17.7259 15.43 20.453 15.43C23.18 15.43 25.7661 15.1517 27.9759 14.6415C29.6686 14.2705 31.3612 15.1981 31.7844 16.8678C32.3956 19.2332 32.3956 21.413 32.3486 22.6653C32.3486 23.1291 32.3486 23.4073 32.3956 23.5929C32.4897 24.2422 33.336 24.5205 34.0413 24.5205C34.9346 24.5205 35.875 24.2422 36.0631 23.5465C36.1571 23.1291 36.2511 22.5261 36.3452 21.5985C36.5333 21.6449 36.6743 21.6913 36.6743 21.7377C36.8624 21.9232 37.2855 22.4797 37.2855 24.3349C37.3796 26.422 36.8154 26.4684 35.7339 26.6076Z" fill="black"/>
</svg>
