<svg width="44" height="50" viewBox="0 0 44 50" fill="none" xmlns="http://www.w3.org/2000/svg">
<path d="M12.305 23.0289C12.1715 20.3453 11.9718 17.9691 11.9537 15.5915C11.9255 11.9077 12.0252 8.22315 12.0617 4.53885C12.0706 3.63251 12.0995 2.72115 12.0219 1.82038C11.9033 0.445644 12.2748 -0.02407 13.7137 0.000941869C16.749 0.0537266 19.7835 0.187359 22.8186 0.199913C24.9172 0.208603 27.0179 -0.00457509 29.1147 0.0343232C29.9839 0.068914 30.8294 0.32654 31.5687 0.782137C31.8528 0.957561 31.7539 1.86286 31.7102 2.42682C31.4178 6.19115 31.0236 9.94895 30.8024 13.717C30.6403 16.4767 30.6917 19.2487 30.6439 22.2742C32.1658 22.298 33.3735 22.3473 34.5802 22.3291C36.8216 22.2953 39.0625 22.2265 41.3032 22.1608C41.6764 22.0994 42.0534 22.0639 42.4315 22.0547C42.9737 22.1175 43.9398 22.2413 43.9601 22.4234C44.0357 23.1027 44.0401 24.0208 43.6416 24.4844C40.8663 27.7124 37.916 30.7922 35.1526 34.0299C32.0639 37.6488 29.0996 41.3733 26.1103 45.0751C25.1049 46.3202 24.2214 47.6622 23.2239 48.9139C21.9737 50.4829 20.5522 50.2862 19.3681 48.7471C17.5736 46.4146 15.5151 44.2844 13.6841 41.9778C11.2274 38.883 8.88654 35.6976 6.4768 32.5656C6.21341 32.3159 5.92781 32.0904 5.62351 31.892C5.40721 31.7179 5.22202 31.5089 5.07571 31.2736C4.70786 30.4693 4.29561 29.6858 3.84083 28.9267C2.70208 27.3113 1.45227 25.7737 0.284876 24.1775C-0.295055 23.3846 0.0301551 22.6932 1.08103 22.6536C2.90068 22.5853 4.72699 22.6158 6.54791 22.6786C8.3542 22.7408 10.1573 22.894 12.305 23.0289ZM8.35529 31.6823L8.20158 32.2612C9.10442 32.8829 9.23737 34.134 11.0295 34.0522C15.0125 33.8706 19.0181 34.2532 23.0153 34.2786C25.3353 34.2934 27.6565 34.052 29.9781 33.9488C30.476 33.9267 31.1874 33.9359 30.9582 34.6672C30.8644 34.925 30.7107 35.1572 30.5097 35.3449C30.3087 35.5327 30.066 35.6707 29.8013 35.7477C28.0485 35.8488 26.2843 35.7588 24.5243 35.7332C21.4815 35.689 18.4387 35.6066 15.3961 35.6094C14.0683 35.6106 12.7407 35.7827 11.2383 35.8896C11.9293 36.8827 12.6699 37.8408 13.4573 38.7603C13.8647 39.1547 14.4 39.3919 14.9674 39.4296C15.7626 39.3857 16.5538 39.2854 17.3346 39.1293C19.9749 38.86 22.6168 38.6054 25.26 38.3654C25.9495 38.3037 26.6372 38.4989 26.6264 39.315C26.6142 40.2307 25.8926 40.0628 25.2246 40.0644C23.2788 40.0691 21.3262 40.0912 19.39 40.2617C18.0096 40.4627 16.6413 40.7389 15.2914 41.0891L17.4028 43.6929C20.1722 42.1997 22.9046 42.4061 25.7678 42.3997L41.9199 23.8261C39.1228 23.7824 36.3912 23.6916 33.6609 23.7211C32.5821 23.7327 31.5062 24.1438 30.4292 24.1429C28.163 24.1408 25.8974 23.9699 23.6305 23.9016C22.453 23.8469 21.2734 23.8525 20.0965 23.9183C17.2105 24.1276 14.3244 23.7995 11.4186 24.5353C9.6639 24.9796 7.6482 24.4244 5.7518 24.2899C4.72703 24.2171 3.70655 24.0845 2.56273 23.9664C3.02191 25.3055 3.75261 25.8732 4.99064 25.8769C11.7211 25.8968 18.453 26.0495 25.1813 25.9492C29.4433 25.8856 33.6986 25.4332 37.9607 25.2369C38.4111 25.2162 38.8871 25.7463 39.3513 26.0209C38.9403 26.3697 38.5452 27.0002 38.1159 27.024C33.6417 27.2729 29.1632 27.5199 24.6835 27.5751C20.4516 27.6272 16.2169 27.4475 11.9834 27.3735C9.72587 27.334 7.46823 27.2985 5.2105 27.2669L5.08818 27.6255C5.48277 27.976 5.81468 28.3905 6.0698 28.8514C6.58086 30.3682 7.68311 30.3389 9.00487 30.3127C12.4346 30.2449 15.8686 30.3988 19.2985 30.3368C22.9213 30.2713 26.541 30.0484 30.1629 29.9154C31.4171 29.8349 32.6751 29.8316 33.9298 29.9056C34.7997 29.9812 34.8511 30.6027 34.2353 31.1195C33.8841 31.3919 33.4534 31.5435 33.008 31.5516C31.956 31.5562 30.8995 31.3504 29.8519 31.3944C27.0678 31.5113 24.2893 31.8071 21.5052 31.8604C18.4088 31.9198 15.3087 31.7901 12.2103 31.7425C10.9253 31.7227 9.64029 31.7027 8.35529 31.6823ZM13.7244 17.6355C14.7785 17.7452 15.7776 17.9314 16.778 17.9382C20.0733 17.9607 23.3692 17.8941 26.6646 17.9086C29.2111 17.9197 29.2123 17.951 29.2902 15.5105C29.2745 15.3754 29.2426 15.2427 29.1952 15.1152C23.973 14.5661 18.7747 13.7949 13.4436 14.3581C13.4568 14.8255 13.4474 15.1551 13.4792 15.4807C13.5476 16.1825 13.6373 16.8821 13.7244 17.6355ZM27.8025 13.2249L27.8445 13.5042C28.3764 13.3276 29.1371 13.3106 29.3961 12.9437C30.0947 11.954 29.2038 10.3153 27.9827 10.2003C23.5709 9.78456 19.1576 9.38527 14.7428 9.00237C13.4566 8.89179 13.2556 9.16382 13.3646 10.4944C13.3928 10.8715 13.3667 11.2506 13.2871 11.6203C13.1152 12.4306 13.493 12.6658 14.2378 12.693C18.7598 12.8582 23.281 13.0452 27.8025 13.2249ZM29.0672 22.4001C29.1768 21.7321 29.2069 21.0535 29.1567 20.3785C29.1034 20.1623 28.9988 19.962 28.8516 19.7942C28.7044 19.6264 28.519 19.4961 28.3108 19.4142C26.8933 19.2887 25.4613 19.3173 24.0345 19.3066C21.5621 19.2881 19.0879 19.335 16.6177 19.2554C14.1947 19.1773 14.3193 19.155 13.9857 21.2951C13.7918 22.5391 14.3229 22.5241 15.1777 22.5346C19.1475 22.5835 23.117 22.6693 27.0869 22.6979C27.7543 22.6542 28.4167 22.5546 29.0672 22.4001ZM24.6302 8.38203C26.0549 8.40428 27.2238 8.25272 28.313 8.47946C29.9355 8.81719 29.6752 7.63936 29.8475 6.83674C30.0761 5.77162 29.2945 5.7106 28.5289 5.6577C25.5844 5.45422 22.6409 5.23582 19.6966 5.02902C17.93 4.90495 16.1621 4.79868 14.3958 4.67083C13.6768 4.61879 13.2221 4.82826 13.3154 5.64151C13.3973 6.35597 13.1816 7.23664 14.3291 7.34896C17.8563 7.69421 21.3819 8.05517 24.6302 8.38203ZM29.799 4.02272C30.2436 2.12168 30.0618 1.81695 28.4708 1.69366C27.6915 1.63326 26.906 1.64443 26.1231 1.63896C23.4773 1.62052 20.8314 1.61455 18.1856 1.59301C16.655 1.58053 15.1246 1.54728 13.5791 1.52314C13.4055 3.3641 14.6995 3.11833 15.5183 3.2031C18.4924 3.51101 21.4762 3.74194 24.4612 3.92474C26.2187 4.03233 27.9851 3.9944 29.799 4.02272ZM24.5528 43.8649L18.3005 44.5683C19.2459 45.7485 19.6382 46.7168 21.2704 46.0174C22.3912 45.5371 23.69 45.5524 24.5528 43.8649Z" fill="black"/>
</svg>
