<svg width="11" height="11" viewBox="0 0 11 11" fill="none" xmlns="http://www.w3.org/2000/svg">
<path d="M5.45312 0C5.78003 0 6.0457 0.2672 6.0459 0.59668V5.07715H10.4033C10.7327 5.07735 10.9998 5.34217 11 5.66895C11 5.99585 10.7328 6.26152 10.4033 6.26172H6.0459V10.4033C6.0457 10.7328 5.78003 11 5.45312 11C5.12642 10.9998 4.86153 10.7327 4.86133 10.4033V6.26172H0.59668C0.2672 6.26152 1.4404e-08 5.99585 0 5.66895C0.000155511 5.34217 0.267296 5.07735 0.59668 5.07715H4.86133V0.59668C4.86153 0.267347 5.12642 0.000237167 5.45312 0Z" fill="white"/>
</svg>
