<svg width="9" height="9" viewBox="0 0 9 9" fill="none" xmlns="http://www.w3.org/2000/svg">
<path d="M4.13184 0C4.37934 0.00022524 4.57999 0.202628 4.58008 0.452148V3.84668H7.88086C8.13059 3.84668 8.33301 4.04717 8.33301 4.29492C8.333 4.54267 8.13059 4.74316 7.88086 4.74316H4.58008V7.88086C4.58008 8.13045 4.3794 8.33278 4.13184 8.33301C3.88408 8.33301 3.68262 8.13059 3.68262 7.88086V4.74316H0.452148C0.202489 4.74308 3.24654e-06 4.54262 0 4.29492C-1.09139e-08 4.04722 0.202487 3.84676 0.452148 3.84668H3.68262V0.452148C3.6827 0.202489 3.88414 0 4.13184 0Z" fill="black"/>
</svg>
