<svg width="20" height="21" viewBox="0 0 20 21" fill="none" xmlns="http://www.w3.org/2000/svg">
<path d="M9.65629 14.737C10.5495 14.737 11.4227 14.4722 12.1653 13.9759C12.908 13.4797 13.4869 12.7743 13.8287 11.9491C14.1705 11.1239 14.2599 10.2159 14.0857 9.33981C13.9114 8.46376 13.4813 7.65906 12.8497 7.02746C12.2181 6.39587 11.4134 5.96575 10.5373 5.79149C9.6613 5.61723 8.75325 5.70667 7.92803 6.04849C7.10281 6.3903 6.39749 6.96915 5.90125 7.71183C5.405 8.4545 5.14014 9.32766 5.14014 10.2209C5.14165 11.4182 5.61794 12.566 6.46456 13.4126C7.31117 14.2592 8.459 14.7355 9.65629 14.737ZM9.65629 7.13087C10.2674 7.13087 10.8649 7.31209 11.373 7.65163C11.8811 7.99116 12.2772 8.47375 12.5111 9.03838C12.745 9.603 12.8061 10.2243 12.6869 10.8237C12.5677 11.4231 12.2734 11.9737 11.8412 12.4058C11.4091 12.838 10.8585 13.1323 10.2591 13.2515C9.65972 13.3707 9.03842 13.3095 8.4738 13.0757C7.90917 12.8418 7.42658 12.4457 7.08705 11.9376C6.74752 11.4294 6.56629 10.832 6.56629 10.2209C6.5673 9.40166 6.89317 8.61629 7.47244 8.03702C8.05171 7.45775 8.83708 7.13187 9.65629 7.13087Z" fill="black"/>
<path d="M1.44823 11.8638L1.13638 12.0435C0.61609 12.344 0.236457 12.8388 0.0809807 13.4192C-0.0744961 13.9996 0.00691612 14.6179 0.307311 15.1383L0.722797 15.859C1.02418 16.3783 1.519 16.7571 2.099 16.9125C2.67899 17.0678 3.29691 16.9871 3.81755 16.688L4.13226 16.5064C4.27699 16.4255 4.44222 16.3887 4.60761 16.4005C4.77299 16.4124 4.93131 16.4723 5.06306 16.573C5.51485 16.8998 6.00028 17.1774 6.51108 17.4011C6.66543 17.4645 6.79788 17.5716 6.89214 17.7093C6.9864 17.8469 7.03835 18.0092 7.04161 18.176C7.04236 18.7766 7.28131 19.3525 7.70605 19.7772C8.13078 20.202 8.70663 20.4409 9.30729 20.4417H10.0052C10.6058 20.4409 11.1817 20.202 11.6064 19.7772C12.0311 19.3525 12.2701 18.7766 12.2708 18.176C12.2741 18.0092 12.326 17.8469 12.4203 17.7093C12.5146 17.5716 12.647 17.4645 12.8014 17.4011C13.3118 17.1776 13.7969 16.9003 14.2484 16.5739C14.3805 16.4736 14.5389 16.4138 14.7043 16.4018C14.8697 16.3898 15.035 16.4262 15.1802 16.5064L15.4949 16.688C16.0158 16.9886 16.6347 17.0701 17.2157 16.9147C17.7967 16.7592 18.2922 16.3795 18.5935 15.859L19.0089 15.1383C19.3093 14.6179 19.3907 13.9996 19.2353 13.4192C19.0798 12.8388 18.7002 12.344 18.1799 12.0435L17.868 11.8638C17.7247 11.7779 17.6098 11.6518 17.5373 11.5013C17.4648 11.3508 17.438 11.1823 17.4601 11.0167C17.4879 10.7523 17.5012 10.4867 17.5001 10.2209C17.4999 9.95632 17.4856 9.69195 17.4573 9.4289C17.4343 9.26279 17.4606 9.09358 17.5329 8.9423C17.6053 8.79101 17.7205 8.66432 17.8642 8.57796L18.1761 8.39827C18.6964 8.09778 19.076 7.60294 19.2315 7.02257C19.3869 6.44221 19.3055 5.82386 19.0051 5.30351L18.5935 4.58283C18.2917 4.06279 17.7961 3.68366 17.2152 3.52859C16.6343 3.37352 16.0156 3.45518 15.4949 3.75566L15.1802 3.93726C15.0356 4.01864 14.8703 4.05572 14.7048 4.04389C14.5393 4.03205 14.3809 3.97183 14.2494 3.8707C13.7976 3.54386 13.3122 3.26624 12.8014 3.04258C12.647 2.97921 12.5146 2.8721 12.4203 2.73443C12.326 2.59675 12.2741 2.43452 12.2708 2.26771C12.2706 1.66671 12.0319 1.09038 11.6071 0.665232C11.1823 0.240086 10.6062 0.000877669 10.0052 0.00012207H9.30729C8.70663 0.000876833 8.13078 0.239824 7.70605 0.664559C7.28131 1.08929 7.04236 1.66514 7.04161 2.2658C7.03835 2.43262 6.9864 2.59485 6.89214 2.73252C6.79788 2.8702 6.66543 2.97731 6.51108 3.04068C6.00069 3.26418 5.51559 3.54147 5.06401 3.86785C4.93226 3.96887 4.77382 4.02909 4.60824 4.04109C4.44266 4.05308 4.27719 4.01633 4.13226 3.93536L3.81755 3.75566C3.29674 3.45544 2.67816 3.37392 2.09735 3.52897C1.51654 3.68402 1.02089 4.06299 0.718994 4.58283L0.303508 5.30351C0.0031131 5.82386 -0.0782991 6.44221 0.0771777 7.02257C0.232654 7.60294 0.612287 8.09778 1.13258 8.39827L1.44443 8.57796C1.5877 8.66393 1.70266 8.78995 1.77515 8.94049C1.84763 9.09103 1.87445 9.25949 1.85231 9.4251C1.82459 9.68944 1.81126 9.9551 1.81238 10.2209C1.81257 10.4855 1.82686 10.7498 1.85516 11.0129C1.87818 11.179 1.85188 11.3482 1.77953 11.4995C1.70719 11.6508 1.59198 11.7775 1.44823 11.8638ZM2.16131 13.0998C2.54333 12.8744 2.85169 12.5429 3.04899 12.1456C3.24628 11.7483 3.32401 11.3023 3.27276 10.8617C3.24973 10.6489 3.23831 10.435 3.23853 10.2209C3.2383 10.0065 3.25004 9.79222 3.27371 9.57912C3.3243 9.13887 3.24614 8.6934 3.0487 8.29667C2.85126 7.89994 2.54302 7.56897 2.16131 7.34386L1.84946 7.16322C1.65672 7.05186 1.51609 6.86851 1.4585 6.65349C1.40091 6.43847 1.43108 6.20938 1.54236 6.01659L1.95499 5.29686C2.0102 5.20111 2.08379 5.11722 2.17154 5.05001C2.25928 4.9828 2.35945 4.9336 2.46627 4.90523C2.5731 4.87687 2.68447 4.8699 2.794 4.88474C2.90353 4.89957 3.00904 4.93591 3.10447 4.99166L3.41918 5.17231C3.80301 5.38936 4.24134 5.49101 4.68152 5.46503C5.12171 5.43906 5.54504 5.28658 5.90069 5.02589C6.26964 4.75866 6.66615 4.53172 7.08344 4.34894C7.49194 4.17419 7.84053 3.88398 8.08644 3.51394C8.33235 3.14389 8.46488 2.7101 8.46776 2.2658C8.46801 2.04323 8.55655 1.82983 8.71393 1.67245C8.87132 1.51506 9.08471 1.42653 9.30729 1.42628H10.0052C10.2277 1.42653 10.4411 1.51506 10.5985 1.67245C10.7559 1.82983 10.8444 2.04323 10.8447 2.2658C10.8479 2.70978 10.9806 3.14315 11.2265 3.51283C11.4724 3.8825 11.8208 4.17242 12.229 4.34704C12.6465 4.53002 13.0433 4.75695 13.4127 5.02399C13.7681 5.28481 14.1913 5.43739 14.6314 5.46337C15.0715 5.48935 15.5097 5.38761 15.8933 5.1704L16.208 4.98881C16.3036 4.93339 16.4092 4.89736 16.5187 4.8828C16.6283 4.86824 16.7396 4.87543 16.8464 4.90396C16.9532 4.93248 17.0533 4.98178 17.141 5.04904C17.2287 5.11629 17.3022 5.20018 17.3575 5.29591L17.7729 6.01754C17.8839 6.21024 17.9139 6.4391 17.8563 6.65389C17.7988 6.86869 17.6583 7.05186 17.4658 7.16322L17.154 7.34386C16.772 7.56931 16.4636 7.90079 16.2663 8.29807C16.069 8.69536 15.9913 9.14137 16.0425 9.58197C16.0645 9.79422 16.075 10.0075 16.0739 10.2209C16.0742 10.4353 16.0624 10.6496 16.0387 10.8627C15.9881 11.3029 16.0663 11.7484 16.2637 12.1451C16.4612 12.5418 16.7694 12.8728 17.1511 13.0979L17.463 13.2786C17.6557 13.3899 17.7964 13.5733 17.8539 13.7883C17.9115 14.0033 17.8814 14.2324 17.7701 14.4252L17.3546 15.1449C17.2432 15.3377 17.0599 15.4783 16.8449 15.5359C16.6299 15.5935 16.4008 15.5633 16.208 15.452L15.8933 15.2714C15.5094 15.0543 15.0711 14.9527 14.6309 14.9786C14.1907 15.0046 13.7674 15.1571 13.4118 15.4178C13.0428 15.685 12.6463 15.912 12.229 16.0947C11.8208 16.2694 11.4724 16.5593 11.2265 16.929C10.9806 17.2986 10.8479 17.732 10.8447 18.176C10.8444 18.3986 10.7559 18.6119 10.5985 18.7693C10.4411 18.9267 10.2277 19.0153 10.0052 19.0155H9.30729C9.08471 19.0153 8.87132 18.9267 8.71393 18.7693C8.55655 18.6119 8.46801 18.3986 8.46776 18.176C8.46451 17.732 8.33181 17.2986 8.08592 16.929C7.84004 16.5593 7.49164 16.2694 7.08344 16.0947C6.66596 15.9118 6.26915 15.6848 5.89973 15.4178C5.50314 15.1305 5.02608 14.9754 4.53633 14.9747C4.14429 14.9742 3.75902 15.0769 3.41918 15.2723L3.10447 15.4539C3.00877 15.5092 2.90312 15.545 2.79356 15.5595C2.684 15.5739 2.57267 15.5666 2.46593 15.538C2.35919 15.5094 2.25913 15.46 2.17146 15.3928C2.08379 15.3255 2.01024 15.2416 1.95499 15.1459L1.53951 14.4242C1.43003 14.232 1.40087 14.0043 1.45838 13.7906C1.51588 13.577 1.6554 13.3947 1.84661 13.2833L2.16131 13.0998Z" fill="black"/>
</svg>
