<svg width="17" height="17" viewBox="0 0 17 17" fill="none" xmlns="http://www.w3.org/2000/svg">
<path d="M8.5 4.5L2.86667 10.3333L1 14.5333L1.46667 15L5.66667 13.6L12 7.5L13.5 5.5L12.5 4.5L10.5 2.5L8.5 4.5Z" fill="#FFD60A"/>
<path d="M1.76668 15.9053L5.83872 14.193L6.03911 14.1086L6.19311 13.9568L15.7446 4.53885C16.3055 3.98585 16.3055 3.08586 15.7446 2.53263L13.5965 0.414752C13.0356 -0.138251 12.1229 -0.138251 11.5618 0.414752L2.01029 9.83267L1.82949 10.0109L1.74461 10.2487L0.230933 14.4865C0.0794079 14.9094 -0.167018 15.6923 0.165527 16C0.498073 16.3077 1.34722 16.082 1.76668 15.9053ZM12.8003 1.19952L14.9485 3.31763C15.0707 3.43817 15.0707 3.63353 14.9485 3.75408L13.7946 4.89183L11.2038 2.33727L12.3577 1.19952C12.48 1.07898 12.6781 1.07898 12.8003 1.19952ZM1.29274 14.8552L2.80641 10.6174L10.4081 3.12204L12.9989 5.6766L5.39698 13.172L1.32426 14.8845C1.30535 14.8925 1.28598 14.8745 1.29274 14.8552Z" fill="black"/>
<path d="M1.76668 15.9053L5.83872 14.193L6.03911 14.1086L6.19311 13.9568L15.7446 4.53885C16.3055 3.98585 16.3055 3.08586 15.7446 2.53263L13.5965 0.414752C13.0356 -0.138251 12.1229 -0.138251 11.5618 0.414752L2.01029 9.83267L1.82949 10.0109L1.74461 10.2487L0.230933 14.4865C0.0794079 14.9094 -0.167018 15.6923 0.165527 16C0.498073 16.3077 1.34722 16.082 1.76668 15.9053ZM12.8003 1.19952L14.9485 3.31763C15.0707 3.43817 15.0707 3.63353 14.9485 3.75408L13.7946 4.89183L11.2038 2.33727L12.3577 1.19952C12.48 1.07898 12.6781 1.07898 12.8003 1.19952ZM1.29274 14.8552L2.80641 10.6174L10.4081 3.12204L12.9989 5.6766L5.39698 13.172L1.32426 14.8845C1.30535 14.8925 1.28598 14.8745 1.29274 14.8552Z" fill="black"/>
</svg>
