<svg width="11" height="12" viewBox="0 0 11 12" fill="none" xmlns="http://www.w3.org/2000/svg">
<path d="M9.25606 0H1.60763C0.721133 0 0 0.721272 0 1.60777V9.66666C0 10.5532 0.721133 11.2744 1.60763 11.2744H9.25606C10.1426 11.2744 10.8638 10.5532 10.8638 9.66666V1.60777C10.8638 0.721272 10.1426 0 9.25606 0ZM9.82304 9.66666C9.82304 9.97981 9.56921 10.2336 9.25606 10.2336H1.60763C1.29461 10.2336 1.0408 9.97981 1.0408 9.66666V1.60777C1.0408 1.29462 1.29461 1.0408 1.60763 1.0408H9.25606C9.56921 1.0408 9.82304 1.29462 9.82304 1.60777V9.66666Z" fill="black"/>
<path d="M7.73308 2.85791H3.03532C2.81974 2.85791 2.64502 3.03263 2.64502 3.24821C2.64502 3.46378 2.81974 3.63851 3.03532 3.63851H7.73308C7.94866 3.63851 8.12338 3.46378 8.12338 3.24821C8.12338 3.03263 7.94866 2.85791 7.73308 2.85791Z" fill="black"/>
<path d="M7.73308 4.99567H3.03532C2.81974 4.99567 2.64502 5.17039 2.64502 5.38597C2.64502 5.60154 2.81974 5.77626 3.03532 5.77626H7.73308C7.94866 5.77626 8.12338 5.60154 8.12338 5.38597C8.12338 5.17039 7.94866 4.99567 7.73308 4.99567Z" fill="black"/>
<path d="M5.08985 7.13342H3.03532C2.81974 7.13342 2.64502 7.30815 2.64502 7.52372C2.64502 7.7393 2.81974 7.91402 3.03532 7.91402H5.08985C5.30542 7.91402 5.48015 7.7393 5.48015 7.52372C5.48015 7.30815 5.30542 7.13342 5.08985 7.13342Z" fill="black"/>
</svg>
