<svg width="8" height="11" viewBox="0 0 8 11" fill="none" xmlns="http://www.w3.org/2000/svg">
<path d="M7.00001 0C7.17824 0 7.34316 0.0948661 7.43263 0.249023C7.52201 0.4031 7.52288 0.593354 7.43458 0.748047L5.86231 3.5H7.50001C7.69829 3.5 7.87817 3.61733 7.95802 3.79883C8.03771 3.98027 8.00209 4.19179 7.86817 4.33789L2.36817 10.3379C2.21356 10.5064 1.9641 10.5488 1.7627 10.4404C1.5615 10.332 1.45933 10.1007 1.51466 9.87891L2.35938 6.5H0.500008C0.317517 6.5 0.149348 6.40021 0.0615315 6.24023C-0.026079 6.08033 -0.0197686 5.88529 0.0781331 5.73145L3.57813 0.231445L3.61524 0.180664C3.70952 0.067044 3.85022 0 4.00001 0H7.00001ZM1.41114 5.5H3.00001C3.15398 5.5 3.29979 5.57102 3.39454 5.69238C3.48909 5.81364 3.52258 5.9719 3.48536 6.12109L2.9629 8.20898L6.36427 4.5H5.00001C4.82177 4.5 4.65685 4.40513 4.56739 4.25098C4.47801 4.0969 4.47714 3.90665 4.56544 3.75195L6.1377 1H4.27442L1.41114 5.5Z" fill="#505050"/>
</svg>
