<svg width="16" height="14" viewBox="0 0 16 14" fill="none" xmlns="http://www.w3.org/2000/svg">
<path d="M13.6943 0C14.7184 5.66844e-05 15.5514 0.886563 15.5518 1.97656V8.88574C15.5518 9.97573 14.7185 10.8632 13.6943 10.8633H13.252V9.58301H13.6943C14.0561 9.58295 14.3496 9.27075 14.3496 8.88574V1.97656C14.3495 1.59163 14.056 1.27935 13.6943 1.2793H4.85742C4.49582 1.2793 4.20223 1.59159 4.20215 1.97656V2.2998H3V1.97656C3.00017 0.886688 3.83328 0 4.85742 0H13.6943Z" fill="black"/>
<path d="M10.6942 3L1.85742 3C0.83318 3 0 3.88686 0 4.97689L0 11.886C0 12.976 0.83318 13.8629 1.85742 13.8629H10.6942C11.7185 13.8629 12.5518 12.976 12.5518 11.886V4.97689C12.5517 3.8867 11.7185 3 10.6942 3ZM11.3493 11.8858C11.3493 12.2708 11.056 12.5829 10.6942 12.5829H1.85742C1.49576 12.5829 1.20251 12.2708 1.20251 11.8858V4.97673C1.20251 4.59168 1.49576 4.27959 1.85742 4.27959H10.6942C11.056 4.27959 11.3493 4.59168 11.3493 4.97673V11.8858Z" fill="black"/>
<path d="M11.5763 6.5H0.943173C0.45523 6.5 0.5 6.71484 0.5 6.9799C0.5 7.24497 0.45523 7.45981 0.943173 7.45981H11.5763C12.0643 7.45981 12.0002 7.24497 12.0002 6.9799C12.0002 6.71484 12.0643 6.5 11.5763 6.5Z" fill="black"/>
<path d="M8.16584 6.58739L4.76736 3.4278C4.51877 3.20396 4.29501 3.4108 4.11765 3.60778C3.94028 3.80476 3.87653 3.91724 4.12513 4.14107L7.5236 7.30067C7.77219 7.52451 7.92939 7.29316 8.10676 7.09618C8.28412 6.89919 8.41458 6.81136 8.16584 6.58739Z" fill="black"/>
</svg>
