<svg width="12" height="12" viewBox="0 0 12 12" fill="none" xmlns="http://www.w3.org/2000/svg">
<g opacity="0.9">
<path d="M6 0C9.31371 0 12 2.68629 12 6C12 9.31371 9.31371 12 6 12C2.68629 12 0 9.31371 0 6C0 2.68629 2.68629 0 6 0ZM6 1C3.23858 1 1 3.23858 1 6C1 8.76142 3.23858 11 6 11C8.76142 11 11 8.76142 11 6C11 3.23858 8.76142 1 6 1ZM6 2.5C6.27614 2.5 6.5 2.72386 6.5 3V5.79297L8.35352 7.64648C8.54878 7.84175 8.54878 8.15825 8.35352 8.35352C8.15825 8.54878 7.84175 8.54878 7.64648 8.35352L5.5 6.20703V3C5.5 2.72386 5.72386 2.5 6 2.5Z" fill="white"/>
</g>
</svg>
