<svg width="13" height="18" viewBox="0 0 13 18" fill="none" xmlns="http://www.w3.org/2000/svg">
<path d="M6.2808 0C2.81756 0 0 2.81756 0 6.28097C0 8.58433 1.28027 10.7129 3.29113 11.8043V12.7523C3.29113 13.0728 3.55097 13.3327 3.87149 13.3327H8.61633C8.93686 13.3327 9.19669 13.0728 9.19669 12.7523V11.8435C11.2527 10.7642 12.5616 8.62081 12.5616 6.28114C12.5616 2.81772 9.74405 0 6.2808 0Z" fill="black"/>
<path d="M8.65343 14.0616C8.4241 14.0616 8.2311 14.2168 8.17339 14.4277H4.39642C4.35098 14.1999 4.14985 14.0281 3.90858 14.0281C3.63382 14.0281 3.41113 14.2508 3.41113 14.5255V14.9251C3.41113 15.1777 3.6 15.384 3.84375 15.4161C3.74327 15.5516 3.71242 15.734 3.78157 15.9015C4.03145 16.5079 4.66769 17.2308 6.28109 17.2308C7.50614 17.2308 8.3916 16.7642 8.77397 15.9167C8.85091 15.7461 8.8219 15.5564 8.71776 15.4163C8.96184 15.3845 9.15105 15.1782 9.15105 14.9253V14.5592C9.15105 14.2844 8.92836 14.0617 8.6536 14.0617L8.65343 14.0616ZM6.28109 16.2358C5.42779 16.2358 4.89636 15.9958 4.70169 15.5224C4.68676 15.4859 4.66702 15.4531 4.64497 15.4224H7.91637C7.89763 15.4486 7.88106 15.4768 7.86729 15.5072C7.58109 16.1411 6.75085 16.2358 6.28126 16.2358H6.28109Z" fill="black"/>
</svg>
