<svg width="17" height="15" viewBox="0 0 17 15" fill="none" xmlns="http://www.w3.org/2000/svg">
<path d="M15.1204 15H1.87972C0.843117 15 0 14.1499 0 13.105V2.05004C0 0.919513 0.91228 0 2.03355 0H5.77933C6.21763 0 6.63494 0.190354 6.92409 0.52234L8.25051 2.04467C8.31884 2.1233 8.41984 2.16479 8.52117 2.16715L14.937 2.12195C15.4829 2.11994 16.0047 2.33112 16.3949 2.72158C16.7852 3.1122 17 3.63269 17 4.18712V13.105C17 14.15 16.1567 15 15.1204 15ZM2.03355 1.17606C1.55558 1.17606 1.1666 1.56819 1.1666 2.05004V13.105C1.1666 13.5014 1.48658 13.8239 1.87972 13.8239H15.1203C15.5134 13.8239 15.8332 13.5014 15.8332 13.105V4.18712C15.8332 3.94838 15.7407 3.72442 15.5728 3.55624C15.4063 3.38958 15.1859 3.29801 14.9513 3.29801H14.945L8.52933 3.34321C8.08819 3.34405 7.66588 3.15605 7.3739 2.82104L6.04731 1.29854C5.97965 1.22075 5.88182 1.17606 5.77916 1.17606H2.03355Z" fill="black"/>
</svg>
