<svg width="51" height="51" viewBox="0 0 51 51" fill="none" xmlns="http://www.w3.org/2000/svg">
<g opacity="0.7" filter="url(#filter0_d_576_794)">
<path d="M16 23.5C16 18.2533 20.2533 14 25.5 14V14C30.7467 14 35 18.2533 35 23.5V23.5C35 28.7467 30.7467 33 25.5 33V33C20.2533 33 16 28.7467 16 23.5V23.5Z" fill="white"/>
</g>
<g opacity="0.7" filter="url(#filter1_d_576_794)">
<path d="M33.7002 23.5C33.7002 18.9713 30.0287 15.2998 25.5 15.2998C20.9713 15.2998 17.2998 18.9713 17.2998 23.5C17.2998 28.0287 20.9713 31.7002 25.5 31.7002V33C20.2533 33 16 28.7467 16 23.5C16 18.2533 20.2533 14 25.5 14C30.7467 14 35 18.2533 35 23.5C35 28.7467 30.7467 33 25.5 33V31.7002C30.0287 31.7002 33.7002 28.0287 33.7002 23.5Z" fill="#197D1E"/>
</g>
<path d="M28.4321 21.0991C28.709 20.8293 29.1526 20.8349 29.4224 21.1118C29.6918 21.3887 29.6855 21.8314 29.4087 22.1011L24.2407 27.1372L21.5923 24.5571C21.3154 24.2873 21.3098 23.8438 21.5796 23.5669C21.8494 23.2902 22.292 23.2845 22.5688 23.5542L24.2397 25.1821L28.4321 21.0991Z" fill="#197D1E"/>
<defs>
<filter id="filter0_d_576_794" x="0" y="0" width="51" height="51" filterUnits="userSpaceOnUse" color-interpolation-filters="sRGB">
<feFlood flood-opacity="0" result="BackgroundImageFix"/>
<feColorMatrix in="SourceAlpha" type="matrix" values="0 0 0 0 0 0 0 0 0 0 0 0 0 0 0 0 0 0 127 0" result="hardAlpha"/>
<feOffset dy="2"/>
<feGaussianBlur stdDeviation="8"/>
<feComposite in2="hardAlpha" operator="out"/>
<feColorMatrix type="matrix" values="0 0 0 0 0 0 0 0 0 0 0 0 0 0 0 0 0 0 0.06 0"/>
<feBlend mode="normal" in2="BackgroundImageFix" result="effect1_dropShadow_576_794"/>
<feBlend mode="normal" in="SourceGraphic" in2="effect1_dropShadow_576_794" result="shape"/>
</filter>
<filter id="filter1_d_576_794" x="0" y="0" width="51" height="51" filterUnits="userSpaceOnUse" color-interpolation-filters="sRGB">
<feFlood flood-opacity="0" result="BackgroundImageFix"/>
<feColorMatrix in="SourceAlpha" type="matrix" values="0 0 0 0 0 0 0 0 0 0 0 0 0 0 0 0 0 0 127 0" result="hardAlpha"/>
<feOffset dy="2"/>
<feGaussianBlur stdDeviation="8"/>
<feComposite in2="hardAlpha" operator="out"/>
<feColorMatrix type="matrix" values="0 0 0 0 0 0 0 0 0 0 0 0 0 0 0 0 0 0 0.06 0"/>
<feBlend mode="normal" in2="BackgroundImageFix" result="effect1_dropShadow_576_794"/>
<feBlend mode="normal" in="SourceGraphic" in2="effect1_dropShadow_576_794" result="shape"/>
</filter>
</defs>
</svg>
