<svg width="18" height="27" viewBox="0 0 18 27" fill="none" xmlns="http://www.w3.org/2000/svg">
<path fill-rule="evenodd" clip-rule="evenodd" d="M11.0523 15.1191C11.0523 15.3457 10.8678 15.5279 10.6409 15.5279C10.4129 15.5279 10.2296 15.3446 10.2296 15.1191V12.0099H7.77056V18.3614H12.5008C12.8685 17.2684 13.5973 16.442 14.3853 15.5489C15.6931 14.0638 17.1774 12.3797 17.1774 8.93751C17.1774 6.69372 16.2631 4.66441 14.7843 3.19597C13.3044 1.72639 11.2602 0.817767 9.00109 0.817767C6.74213 0.817767 4.69778 1.72639 3.21785 3.19597C1.73906 4.66444 0.82475 6.6939 0.82475 8.93751C0.82475 12.3808 2.28231 14.0648 3.56657 15.5512C4.34005 16.4442 5.05429 17.2718 5.41531 18.3626H6.94775V12.0111H5.89148C5.37173 12.0111 4.90229 11.8023 4.56249 11.4635C4.2227 11.1258 4.01144 10.6581 4.01144 10.1427C4.01144 9.62734 4.22158 9.15971 4.56249 8.82203C4.90229 8.48435 5.37285 8.2744 5.89148 8.2744C6.41123 8.2744 6.87957 8.48323 7.22048 8.82203C7.56027 9.15971 7.77153 9.62734 7.77153 10.1427V11.1924H10.2306V10.1427C10.2306 9.62734 10.4407 9.15971 10.7805 8.82203C11.1203 8.48435 11.5909 8.2744 12.1095 8.2744C12.6281 8.2744 13.0987 8.48323 13.4385 8.82203C13.7783 9.15971 13.9896 9.62734 13.9896 10.1427C13.9896 10.6581 13.7794 11.1258 13.4385 11.4635C13.0987 11.8011 12.6281 12.0111 12.1095 12.0111H11.0532V15.1203L11.0523 15.1191ZM11.0523 10.1428C11.0523 9.85289 11.1708 9.59074 11.3619 9.40079C11.553 9.21084 11.8168 9.09311 12.1085 9.09311C12.4003 9.09311 12.6641 9.21085 12.8552 9.40079C13.0463 9.59073 13.1648 9.85287 13.1648 10.1428C13.1648 10.4327 13.0463 10.6949 12.8552 10.8848C12.6641 11.0748 12.4003 11.1925 12.1085 11.1925H11.0523V10.1428ZM5.89054 11.1925C5.59882 11.1925 5.33502 11.0747 5.14388 10.8848C4.95274 10.6949 4.83427 10.4327 4.83427 10.1428C4.83427 9.85289 4.95275 9.59074 5.14388 9.40079C5.33501 9.21084 5.59879 9.09311 5.89054 9.09311C6.18229 9.09311 6.44606 9.21085 6.6372 9.40079C6.82834 9.59073 6.94681 9.85287 6.94681 10.1428V11.1925H5.89054ZM13.2172 18.8202V22.919C13.2172 23.3033 13.0596 23.651 12.8059 23.9042C12.6047 24.1042 12.342 24.2441 12.0481 24.293C11.9598 24.9928 11.6368 25.6193 11.1595 26.0925C10.5961 26.6535 9.81705 27 8.95639 27C8.09573 27 7.31665 26.6534 6.75332 26.0925C6.27715 25.6182 5.95301 24.9917 5.8647 24.293C5.57186 24.2441 5.30918 24.1042 5.10688 23.9042C4.85315 23.6521 4.69555 23.3033 4.69555 22.919V18.8302C4.415 17.786 3.70859 16.9696 2.94069 16.0809C1.56251 14.487 0 12.6797 0 8.93751C0 6.47044 1.0082 4.23559 2.6379 2.61701C4.26645 0.999701 6.51657 0 9 0C11.4848 0 13.7337 1.00081 15.3621 2.61701C16.9918 4.23542 18 6.47039 18 8.93751C18 12.6831 16.4072 14.4914 15.0021 16.0855C14.223 16.9708 13.5056 17.7838 13.2172 18.8202ZM11.212 24.3118H6.69953C6.78448 24.7772 7.01136 25.1927 7.33442 25.5137C7.7491 25.9258 8.3225 26.1813 8.95516 26.1813C9.5878 26.1813 10.1612 25.9258 10.5759 25.5137C10.8989 25.1927 11.1258 24.7772 11.2108 24.3118H11.212ZM5.51833 19.1788V20.9271H12.3935V19.1788H5.51833ZM5.51833 21.7447V22.9177C5.51833 23.0754 5.58315 23.2198 5.68822 23.3242C5.79329 23.4286 5.93748 23.4931 6.09732 23.4931H11.8145C11.9732 23.4931 12.1185 23.4286 12.2236 23.3242C12.3286 23.2198 12.3935 23.0765 12.3935 22.9177V21.7447H5.51833Z" fill="#666666"/>
</svg>
