<svg width="18" height="27" viewBox="0 0 18 27" fill="none" xmlns="http://www.w3.org/2000/svg">
<path d="M5.89102 9.09308C6.18258 9.09321 6.44646 9.21127 6.6375 9.4011C6.82846 9.59102 6.94688 9.8532 6.94688 10.143V11.1929H5.89102C5.59929 11.1929 5.3345 11.0748 5.14336 10.8849C4.95241 10.695 4.83403 10.4327 4.83398 10.143C4.83398 9.85328 4.95248 9.59102 5.14336 9.4011C5.33449 9.21116 5.59926 9.09308 5.89102 9.09308Z" fill="black"/>
<path d="M12.109 9.09308C12.4005 9.0932 12.6644 9.21126 12.8555 9.4011C13.0464 9.59102 13.1648 9.85319 13.1648 10.143C13.1648 10.4328 13.0465 10.6949 12.8555 10.8849C12.6644 11.0747 12.4006 11.1928 12.109 11.1929H11.052V10.143C11.052 9.85329 11.1705 9.59102 11.3613 9.4011C11.5525 9.21116 11.8172 9.09308 12.109 9.09308Z" fill="black"/>
<path fill-rule="evenodd" clip-rule="evenodd" d="M9 0C11.4848 0 13.7337 1.00135 15.3621 2.61754C16.9916 4.23589 17.9999 6.47038 18 8.93728C18 12.6826 16.4074 14.4911 15.0023 16.0852C14.2233 16.9705 13.506 17.7839 13.2176 18.8202V22.9191C13.2176 23.3033 13.0599 23.651 12.8063 23.9043C12.6051 24.1042 12.342 24.2437 12.048 24.2926C11.9597 24.9923 11.637 25.6196 11.1598 26.0927C10.5965 26.6536 9.8172 26.9999 8.95664 27C8.09609 27 7.31683 26.6535 6.75352 26.0927C6.27735 25.6184 5.95354 24.9912 5.86523 24.2926C5.57244 24.2437 5.30932 24.1042 5.10703 23.9043C4.85332 23.6521 4.69573 23.3034 4.6957 22.9191V18.8298C4.41509 17.7858 3.70805 16.9689 2.94023 16.0804C1.56217 14.4865 0 12.679 0 8.93728C6.23337e-05 6.47044 1.0084 4.23606 2.63789 2.61754C4.26644 1.00024 6.51657 3.07125e-07 9 0ZM5.51836 22.9179C5.51841 23.0755 5.58326 23.2198 5.68828 23.3242C5.79334 23.4286 5.93745 23.4931 6.09727 23.4932H11.8148C11.9734 23.4931 12.1188 23.4285 12.2238 23.3242C12.3288 23.2198 12.3937 23.0766 12.3938 22.9179V21.7445H5.51836V22.9179ZM5.51836 20.9272H12.3938V19.1785H5.51836V20.9272ZM12.109 8.2745C11.5906 8.27465 11.1198 8.48466 10.7801 8.82222C10.4405 9.15988 10.2305 9.62774 10.2305 10.143V11.1929H7.77188V10.143C7.77188 9.62757 7.55972 9.1599 7.21992 8.82222C6.87903 8.48354 6.41067 8.2745 5.89102 8.2745C5.37257 8.27463 4.9018 8.48464 4.56211 8.82222C4.22137 9.15988 4.01133 9.62772 4.01133 10.143C4.01139 10.6583 4.2224 11.1261 4.56211 11.4637C4.9018 11.8024 5.37145 12.0113 5.89102 12.0115H6.94805V18.3623H7.2L7.31953 18.36H7.44023L7.55977 18.3612H7.7707V12.0103H10.2293V15.1192C10.2293 15.3445 10.4128 15.5277 10.6406 15.5279C10.8675 15.5279 11.0519 15.3458 11.052 15.1192L11.0531 15.1204V12.0115H12.109C12.6276 12.0115 13.0993 11.8014 13.4391 11.4637C13.7798 11.1261 13.9898 10.6582 13.9898 10.143C13.9898 9.62776 13.7786 9.15987 13.4391 8.82222C13.0993 8.48343 12.6276 8.2745 12.109 8.2745Z" fill="black"/>
</svg>
