<svg width="86" height="19" viewBox="0 0 86 19" fill="none" xmlns="http://www.w3.org/2000/svg">
<path d="M84.302 0.164235L84.364 0.302284C84.4568 5.36398 84.2144 10.4618 84.4035 15.5143C84.419 15.9281 84.3582 17.1659 84.6827 17.4364C84.8647 17.5881 85.9449 17.605 85.998 17.6596L86.0001 18.0579H80.4861L80.4882 17.6596C80.5329 17.6136 81.5473 17.5692 81.7548 17.4676C82.1287 17.2844 82.0702 15.9718 82.0847 15.5964C82.1456 14.0312 82.2472 12.0147 82.1257 10.4706C81.9678 8.46357 80.3109 6.59616 78.268 6.44936C74.2068 6.15749 73.6807 11.0756 74.1845 14.0632C74.5174 16.0376 75.6444 18.0217 77.8092 18.2578L77.8091 18.5384C76.1881 18.5083 74.7559 17.9036 73.6728 16.6974C71.3635 14.1253 71.2886 10.3544 73.6524 7.78895C75.839 5.41577 80.1563 5.23109 81.8214 8.29361L82.1239 8.89066C82.1323 7.32292 82.1148 5.75381 82.1227 4.18561C82.1268 3.3599 82.3045 2.00464 81.9317 1.25786C81.6794 0.752739 81.1995 0.678456 80.6862 0.644171C80.7054 0.48989 80.6294 0.280085 80.7458 0.164185H84.3019L84.302 0.164235Z" fill="black"/>
<path d="M3.47617 5.84905L3.4745 15.1578C3.58358 18.473 6.82802 18.5409 8.75155 16.4782C9.51972 15.6545 10.0478 14.6963 10.1107 13.5566C10.2205 11.5663 10.0623 9.4315 10.0633 7.43601C9.92629 6.65307 9.52537 6.28317 8.71036 6.32959L8.71056 5.849H12.2667V16.1569C12.2667 16.2649 12.3875 16.6691 12.4362 16.7878C12.6643 17.3441 13.1048 17.4487 13.6654 17.4577L13.6652 17.9382H10.1091V15.2962L9.52623 16.2135C7.94108 18.8109 2.64551 19.5336 1.64143 16.1136C0.938672 13.7201 1.56006 10.2275 1.35993 7.66897C1.33373 7.33432 1.1807 6.77246 0.916715 6.55184C0.673126 6.3483 0.306935 6.35831 0.0174641 6.29187L0 5.849H3.47627L3.47617 5.84905Z" fill="black"/>
<path d="M66.6344 0.0850115L66.6325 13.7974C66.7249 14.6966 66.6419 15.6163 66.7149 16.517C66.7311 16.7162 66.8322 17.2386 66.9968 17.3554C67.2246 17.517 67.999 17.4809 68.2893 17.5739L68.3126 17.9787H62.7586L62.7819 17.5739C63.0659 17.484 63.8973 17.513 64.0982 17.3392C64.2128 17.2402 64.3408 16.7958 64.3565 16.6373C64.412 16.0767 64.3791 15.4778 64.3952 14.9147C64.5183 10.6025 64.3901 6.26643 64.4362 1.94706C64.3576 1.06364 63.9262 0.533595 62.9981 0.565554L62.9984 0.0849609H66.6344V0.0850115Z" fill="black"/>
<path d="M36.2541 6.68958C36.28 6.0496 36.2199 5.38368 36.2524 4.74642C36.2975 3.86291 36.5657 3.15663 37.0606 2.43372C37.9048 1.20058 39.3003 0.133865 40.8287 0.00390625L39.7494 0.684038C38.5107 1.72583 38.5514 2.85854 38.4933 4.34942C38.4678 5.00523 38.3746 5.91069 38.4497 6.55148C38.4565 6.60973 38.4546 6.65439 38.5117 6.68953H42.0079V7.08982H38.5117L38.4497 7.22787C38.4395 9.45678 38.4518 11.6908 38.4933 13.9134C38.5073 14.6627 38.3927 16.5931 38.7034 17.1857C38.7377 17.2513 38.771 17.3323 38.839 17.37C39.0373 17.4801 40.089 17.5268 40.1244 17.5836L40.13 17.9782H34.576L34.5992 17.5734C34.8899 17.4797 35.6718 17.5158 35.8939 17.357C36.0179 17.2683 36.1522 16.8275 36.1699 16.6729C36.2474 15.9951 36.1626 15.2737 36.2558 14.5972L36.2541 7.08982H34.5759V6.68953L36.2541 6.68958Z" fill="black"/>
<path d="M21.1239 5.8894L21.1222 13.8771C21.2154 14.7607 21.1293 15.6666 21.2089 16.5524C21.2253 16.735 21.3364 17.249 21.4864 17.3553C21.7147 17.5171 22.488 17.4808 22.7788 17.5739L22.802 17.9787H17.248L17.2713 17.5739C17.5554 17.4839 18.3866 17.5129 18.5876 17.3392C18.717 17.2274 18.8288 16.7728 18.8457 16.597C18.9092 15.9362 18.842 15.2562 18.9279 14.5977C18.7805 12.3771 19.1214 9.90759 18.9211 7.71595C18.8424 6.85474 18.4057 6.29541 17.4875 6.37L17.4878 5.8894H21.1238H21.1239Z" fill="black"/>
<path d="M25.9583 17.9783L25.9816 17.5736C26.2462 17.4846 26.952 17.5162 27.155 17.3559C27.2825 17.2552 27.3712 16.8751 27.3918 16.7124C27.4576 16.193 27.4192 15.6368 27.435 15.1145C27.4851 13.4668 27.5073 11.7995 27.4371 10.152C27.379 8.78857 27.4394 7.74825 26.1303 6.97775C25.0956 6.36877 23.8717 6.34202 22.7048 6.45195L22.641 6.23107C24.4395 5.73263 27.5976 5.88256 28.8556 7.44985C29.3943 8.12083 29.4289 9.1298 29.4749 9.95183C29.5888 11.9838 29.4569 14.0439 29.5527 16.0786C29.5621 16.2764 29.5811 16.553 29.6055 16.7463C29.6238 16.8906 29.727 17.2666 29.8352 17.3569C30.0198 17.5109 30.7584 17.4879 31.0096 17.5737L31.0329 17.9784H25.9583V17.9783Z" fill="black"/>
<path d="M53.5016 18.0588V17.7782C54.1206 17.7652 54.772 17.4075 55.2557 17.0337C56.8877 15.7725 57.0662 13.2334 56.9796 11.3117C56.8816 9.13664 56.3156 7.13659 54.1517 6.25889C53.9104 6.16105 53.4736 6.17703 53.6834 5.84839C56.2295 6.2908 58.7344 8.25894 59.1241 10.9247C59.372 12.6205 59.0207 14.4631 57.8776 15.7774C56.8095 17.0055 55.1204 17.8996 53.5016 18.0588Z" fill="black"/>
<path d="M51.6637 5.849L51.6646 6.10983C49.6345 6.61489 48.7461 8.23872 48.4731 10.1983C48.1655 12.4066 48.2549 15.8311 50.3002 17.2032C50.7254 17.4885 51.3092 17.7747 51.824 17.7782V18.0588C50.4519 17.9271 48.9611 17.213 47.9475 16.2778C46.4722 14.9169 45.9238 12.8486 46.2415 10.8848C46.6716 8.22658 49.1059 6.28373 51.6637 5.849H51.6637Z" fill="black"/>
<path d="M41.249 0.0441078C41.2409 -0.0313894 41.3327 0.0119974 41.3767 0.0161945C42.4914 0.121577 43.806 0.364958 44.5456 1.28513C45.3476 2.28283 44.3458 3.20022 43.3933 2.47964C42.8715 2.08491 42.9437 1.48912 42.5478 1.00489C42.218 0.601563 41.7137 0.270498 41.249 0.0441583L41.249 0.0441078Z" fill="black"/>
</svg>
