<svg width="100" height="15" viewBox="0 0 100 15" fill="none" xmlns="http://www.w3.org/2000/svg">
<g clip-path="url(#clip0_7_126)">
<path d="M6.07275 0.110485C7.6458 0.204342 9.38608 -0.200163 10.7978 0.652989C13.8221 2.48079 13.0172 7.42593 9.4654 7.93145V14.7167H6.07275V0.110485Z" fill="#010000"/>
<path d="M0.00150654 14.717L0 4.1269C0.144326 1.9043 1.41027 0.228282 3.73169 0.109039C4.22395 0.0837294 4.88758 0.0795111 5.37773 0.109115C5.41773 0.111525 5.57396 0.128097 5.57298 0.164254C4.75132 0.320557 4.05063 0.862609 3.72069 1.6335C3.42473 2.32508 3.50232 3.14305 3.49968 3.87659C3.48741 7.28159 3.53998 10.6492 3.5384 14.0579C3.53833 14.2567 3.46398 14.5011 3.50134 14.7169H0.00150654V14.717Z" fill="#010000"/>
<path d="M47.7468 2.42726L56.6365 2.45558H56.6453L56.6521 2.45949C56.7257 2.50294 56.7674 2.57696 56.7927 2.6548C56.818 2.73253 56.8285 2.81811 56.8357 2.89015C56.9606 4.14631 56.9512 5.43811 57.03 6.69582V6.70168L56.9998 6.69777L57.0291 6.70168C57.0035 6.89518 56.8975 7.0234 56.7537 7.09328C56.6113 7.16239 56.4336 7.17393 56.2625 7.14015C56.0953 7.10713 56.0019 6.97083 55.9451 6.81886C55.8883 6.66693 55.8639 6.48891 55.8416 6.3589C55.6839 5.44061 55.662 4.40188 55.572 3.47121H52.9031C52.8905 3.47111 52.8812 3.46407 52.8767 3.46046C52.8718 3.45648 52.8674 3.45178 52.864 3.44777C52.8605 3.44354 52.8566 3.43835 52.8533 3.4341C52.8499 3.4297 52.8469 3.42533 52.8435 3.4214C52.8418 3.41937 52.8392 3.41818 52.8376 3.41652L52.6892 13.6724C52.6904 13.6711 52.6928 13.6709 52.6941 13.6694C52.6975 13.6655 52.7014 13.6612 52.7048 13.6568C52.7081 13.6525 52.712 13.6473 52.7156 13.6431C52.719 13.6391 52.7233 13.6344 52.7283 13.6304C52.7328 13.6268 52.742 13.6197 52.7546 13.6196H54.7849C54.9084 13.6196 55.0226 13.6848 55.1091 13.7788C55.1957 13.8729 55.2581 13.9988 55.2771 14.1284C55.2961 14.2584 55.2717 14.3943 55.1843 14.5034C55.0969 14.6125 54.9493 14.6908 54.7292 14.7144C53.871 14.8063 52.928 14.7729 51.9832 14.731C51.0375 14.689 50.0898 14.6385 49.2185 14.6948H49.2146C49.0614 14.6834 48.953 14.6096 48.8875 14.5044C48.8226 14.4005 48.8006 14.268 48.8123 14.1392C48.824 14.0101 48.8706 13.8807 48.947 13.7837C49.0237 13.6865 49.1315 13.6197 49.2644 13.6196H51.2957C51.3082 13.6198 51.3175 13.6268 51.322 13.6304C51.327 13.6344 51.3313 13.6391 51.3347 13.6431C51.3383 13.6473 51.3422 13.6525 51.3455 13.6568C51.3489 13.6611 51.3519 13.6655 51.3552 13.6694C51.3566 13.6711 51.3588 13.6719 51.3601 13.6734L51.5085 3.4175C51.5074 3.41877 51.5059 3.41992 51.5046 3.4214C51.5012 3.42538 51.4974 3.42965 51.4939 3.4341C51.4906 3.43835 51.4867 3.44354 51.4832 3.44777C51.4798 3.45179 51.4754 3.45649 51.4705 3.46046C51.4659 3.46408 51.4567 3.47116 51.4441 3.47121H48.8523C48.8285 3.48783 48.8132 3.50456 48.8025 3.52394C48.7905 3.54568 48.7821 3.57195 48.7761 3.60695C48.6948 4.08116 48.6757 4.63683 48.6443 5.18996C48.6129 5.74153 48.5699 6.29077 48.4402 6.74757C48.3904 6.9228 48.2923 7.04156 48.1726 7.10793C48.0534 7.17397 47.9149 7.18673 47.7849 7.15578C47.5247 7.09364 47.2954 6.85406 47.3181 6.5005V6.49855L47.3582 6.09035C47.3924 5.68138 47.4106 5.26976 47.4265 4.85793C47.4477 4.30917 47.4653 3.75908 47.5125 3.21339C47.5216 3.10745 47.531 2.93543 47.5593 2.78078C47.5735 2.70334 47.5929 2.62803 47.6199 2.56691C47.6464 2.50669 47.6827 2.45457 47.7341 2.43019L47.7468 2.42433V2.42726Z" fill="black" stroke="black" stroke-width="0.06"/>
<path d="M84.2358 6.58241C85.5112 6.20858 86.8969 6.41965 88.0552 7.02773C88.1088 6.76991 88.3377 6.60623 88.5757 6.55702C88.8347 6.50359 89.1314 6.58065 89.2427 6.84804C89.252 6.87056 89.2598 6.90944 89.2661 6.95351C89.2727 6.99982 89.2786 7.05859 89.2847 7.12538C89.2969 7.25929 89.3082 7.42811 89.3169 7.59804C89.3256 7.76787 89.3317 7.93999 89.3345 8.08144C89.3372 8.22129 89.3367 8.33578 89.3306 8.3871C89.317 8.50047 89.295 8.62787 89.2446 8.73964C89.1937 8.85256 89.1126 8.95286 88.9829 9.00526C88.7947 9.08131 88.6343 9.07644 88.4917 9.01698C88.3516 8.95845 88.2329 8.84881 88.1235 8.72499C88.0686 8.66274 88.015 8.59509 87.9614 8.52773C87.9076 8.46006 87.8532 8.39222 87.7974 8.32655C87.6856 8.19514 87.5675 8.07611 87.4302 7.99452C87.1893 7.85151 86.8214 7.7335 86.4048 7.66542C85.9888 7.59747 85.5279 7.57968 85.103 7.63319C84.6775 7.68682 84.2929 7.81181 84.0239 8.0248C83.7575 8.23588 83.6017 8.53576 83.6343 8.95058C83.6566 9.23453 83.7583 9.42802 83.9067 9.56288C84.0566 9.69897 84.2587 9.77922 84.4888 9.82655C84.7187 9.87385 84.972 9.88745 85.2212 9.89394C85.4684 9.90037 85.7139 9.89997 85.9204 9.91933C86.6458 9.98737 87.5549 10.0062 88.3022 10.2504C88.6773 10.373 89.0164 10.5536 89.2739 10.8285C89.5321 11.1042 89.705 11.4723 89.7544 11.9633C89.8352 12.7683 89.6183 13.3946 89.2114 13.8617C88.8056 14.3275 88.2142 14.6311 87.5522 14.7982C86.2375 15.13 84.6269 14.929 83.5806 14.3783L83.5347 14.393C83.4089 14.6478 83.1555 14.8434 82.9019 14.8939C82.7705 14.9201 82.6364 14.9073 82.521 14.8412C82.4051 14.7748 82.3136 14.6572 82.2622 14.4838L82.2593 14.473L82.2612 14.4613C82.2877 14.317 82.2657 14.1164 82.228 13.8861C82.191 13.6598 82.1387 13.4047 82.1089 13.1654C82.0791 12.9261 82.0706 12.6918 82.1255 12.5014C82.1816 12.3068 82.3042 12.1568 82.5308 12.0961C82.6888 12.0537 82.8199 12.0578 82.9321 12.0971C83.0438 12.1362 83.1322 12.2088 83.2085 12.2943C83.2843 12.3793 83.3511 12.4804 83.4165 12.5785C83.4827 12.6778 83.5484 12.7751 83.6255 12.8588C84.0291 13.296 84.8234 13.5993 85.6499 13.7074C86.4765 13.8155 87.316 13.7256 87.8101 13.3988C88.1527 13.1721 88.3403 12.7778 88.3354 12.4037C88.3307 12.0317 88.1366 11.6832 87.7192 11.5385C87.2716 11.3834 86.7266 11.3507 86.1665 11.3392C85.6097 11.3278 85.0361 11.3375 84.5435 11.2641C83.0776 11.0454 82.3 10.0823 82.2437 9.06386C82.1874 8.04612 82.8527 6.98797 84.2358 6.58241Z" fill="black" stroke="black" stroke-width="0.1"/>
<path d="M67.6592 6.59227C68.2098 6.59213 68.7659 6.60792 68.9756 6.6411C69.2537 6.68519 69.401 6.90063 69.4199 7.11668C69.4387 7.33089 69.3313 7.55859 69.0898 7.61766C69.0376 7.63043 68.9843 7.63148 68.9365 7.63133C68.8866 7.63117 68.8445 7.62977 68.8057 7.63426C68.7681 7.63862 68.7397 7.64845 68.7178 7.66649C68.6961 7.6843 68.6751 7.71498 68.6611 7.77196L68.6602 7.77586C68.3542 8.69762 68.089 9.63486 67.8223 10.5727C67.5556 11.5103 67.2875 12.4491 66.9766 13.3716C66.9188 13.5429 66.8427 13.8337 66.7314 14.0845C66.6755 14.2105 66.6089 14.3307 66.5283 14.4243C66.4476 14.5181 66.3497 14.5892 66.2314 14.6089C66.0853 14.6331 65.9656 14.6296 65.8652 14.6011C65.764 14.5721 65.6854 14.518 65.6211 14.4468C65.5575 14.3763 65.5078 14.289 65.4629 14.1938C65.4183 14.0993 65.3765 13.9917 65.3301 13.8823C64.8367 12.7196 64.4287 11.3407 64.0615 10.1304C64.0547 10.1078 64.0533 10.0886 64.0527 10.0737C64.0466 10.074 64.0392 10.0739 64.0303 10.0747C63.9711 10.3777 63.9052 10.687 63.8145 10.9839C63.5356 11.8956 63.1489 13.268 62.751 14.1069C62.5571 14.5157 62.2473 14.6817 61.9492 14.6294C61.6553 14.5777 61.3945 14.3171 61.2881 13.9184L59.4131 7.64598C59.2382 7.68738 59.0895 7.66626 58.9727 7.59911C58.8459 7.52622 58.762 7.40541 58.7256 7.27489C58.6893 7.14467 58.6994 7.00133 58.7637 6.88231C58.8289 6.76188 58.9481 6.6695 59.1211 6.6411C59.3081 6.61047 59.8943 6.59489 60.4727 6.59422C60.7631 6.59389 61.054 6.59734 61.2939 6.60497C61.5322 6.61254 61.7249 6.62436 61.8174 6.6411C62.1377 6.6993 62.3298 7.04803 62.2012 7.34715C62.1928 7.36656 62.173 7.394 62.1533 7.41942C62.1323 7.44663 62.1058 7.47715 62.0801 7.50633C62.0543 7.53555 62.0284 7.56435 62.0068 7.58543C61.9963 7.59576 61.9855 7.60467 61.9766 7.6118C61.9722 7.61531 61.9673 7.61937 61.9619 7.62254C61.959 7.62425 61.9468 7.63229 61.9307 7.63231H60.7168C61.2811 9.35671 61.8469 11.1116 62.1807 12.9057C62.1902 12.9067 62.1979 12.9074 62.2041 12.9077C62.206 12.8936 62.2093 12.8741 62.2178 12.8511C62.3173 12.5811 62.3991 12.2744 62.4795 11.9614C62.5597 11.6494 62.639 11.331 62.7324 11.0415C62.9222 10.4536 63.196 9.48209 63.4561 8.95067C63.5986 8.65984 63.8364 8.50316 64.084 8.49657C64.3319 8.49005 64.5767 8.63463 64.7314 8.91844C65.0332 9.47195 65.2451 10.1715 65.4414 10.8716C65.6385 11.5743 65.8204 12.2774 66.0615 12.8462C66.0684 12.8624 66.0748 12.8813 66.0801 12.895C66.0859 12.9104 66.0916 12.9229 66.0977 12.9331L66.0986 12.9341C66.3994 11.1322 66.9229 9.37418 67.4424 7.63231H66.2266C66.1267 7.63227 66.0473 7.56621 65.9951 7.48192C65.9425 7.39665 65.9116 7.2841 65.9102 7.17039C65.9087 7.05645 65.9365 6.93655 66.0059 6.83836C66.076 6.73907 66.1864 6.66532 66.3418 6.6411C66.552 6.60834 67.1083 6.59242 67.6592 6.59227Z" fill="black" stroke="black" stroke-width="0.1"/>
<path d="M29.0881 6.41603C30.611 6.27484 31.7988 6.70833 32.6292 7.44826C33.4587 8.18754 33.9278 9.2298 34.0208 10.3008C34.1137 11.3718 33.8304 12.4747 33.1506 13.335C32.4702 14.196 31.3951 14.8108 29.9124 14.9102C28.4302 15.0095 27.2706 14.5636 26.4573 13.8272C25.6445 13.0912 25.1802 12.0675 25.0842 11.0156C24.9883 9.96412 25.2599 8.88203 25.9211 8.02834C26.5833 7.17371 27.6341 6.55091 29.0881 6.41603ZM31.801 8.33498C31.1871 7.74161 30.2674 7.38944 29.0374 7.52834C27.2412 7.73128 26.3505 9.21224 26.3684 10.6914C26.3864 12.1704 27.3127 13.6319 29.1399 13.7959C30.3523 13.9047 31.2547 13.5313 31.8518 12.9229C32.4499 12.3134 32.7461 11.4642 32.7375 10.6172C32.729 9.77039 32.4157 8.92934 31.801 8.33498Z" fill="black" stroke="black" stroke-width="0.1"/>
<path d="M39.1741 3.60324C39.2957 3.62074 39.4137 3.6577 39.5022 3.71652C39.5911 3.77562 39.6554 3.86074 39.6555 3.97141V6.63644H43.6936C43.7775 6.63661 43.8443 6.68623 43.8928 6.7507C43.9415 6.81546 43.9762 6.90134 43.9963 6.98996C44.0165 7.0787 44.0231 7.1737 44.0129 7.25949C44.0029 7.34414 43.9763 7.42681 43.9231 7.48215C43.9185 7.48694 43.9124 7.4906 43.9104 7.49191C43.9074 7.49388 43.9034 7.49647 43.8997 7.49875C43.8918 7.50348 43.8811 7.5097 43.8694 7.51633C43.8459 7.52959 43.8157 7.54602 43.7854 7.56223C43.7552 7.57842 43.7246 7.59508 43.7004 7.60715C43.6884 7.61315 43.6768 7.61795 43.6682 7.6218C43.664 7.62367 43.6594 7.62621 43.6555 7.62766C43.6536 7.62834 43.6512 7.62892 43.6487 7.62961C43.6469 7.63009 43.6405 7.63156 43.6331 7.63156H39.6555V12.3249C39.6555 12.3591 39.664 12.4186 39.679 12.4929C39.6937 12.5661 39.7149 12.6514 39.7385 12.7361C39.7621 12.8206 39.7887 12.9043 39.8147 12.9753C39.8412 13.0476 39.866 13.1039 39.886 13.1345C40.1172 13.4883 40.6051 13.6071 41.1487 13.6091C41.6881 13.611 42.2616 13.4977 42.6379 13.4109C42.7729 13.3797 42.9392 13.3259 43.1223 13.2644C43.3045 13.2032 43.5033 13.1344 43.7004 13.073C43.8978 13.0115 44.096 12.957 44.2776 12.9255C44.4583 12.8941 44.6277 12.8843 44.7659 12.9157C44.934 12.9541 45.0506 13.0769 45.1096 13.2224C45.1684 13.3675 45.1718 13.54 45.1096 13.6862C45.0876 13.7379 45.0418 13.7873 44.9846 13.8327C44.9264 13.879 44.8515 13.9252 44.7668 13.9714C44.597 14.064 44.3799 14.1582 44.1575 14.2439C43.7125 14.4153 43.2366 14.5585 43.0442 14.6071C42.1047 14.8448 40.9393 14.9702 40.0061 14.7048C39.5387 14.5718 39.1271 14.3396 38.8323 13.9724C38.5371 13.6046 38.3626 13.1055 38.3625 12.445V7.63156H36.8909C36.8834 7.63155 36.8769 7.63007 36.8752 7.62961C36.8727 7.62889 36.8702 7.62833 36.8684 7.62766C36.8645 7.6262 36.86 7.62369 36.8557 7.6218C36.8472 7.61798 36.8363 7.61305 36.8245 7.60715C36.8003 7.59509 36.7698 7.57844 36.7395 7.56223C36.7091 7.54596 36.6781 7.52963 36.6545 7.51633C36.6429 7.50976 36.633 7.50344 36.6252 7.49875C36.6215 7.49648 36.6175 7.49486 36.6145 7.49289C36.6132 7.49204 36.6069 7.48738 36.6018 7.48215C36.5492 7.42769 36.5202 7.34602 36.5081 7.26144C36.4958 7.17581 36.4993 7.08015 36.5178 6.99094C36.5363 6.90218 36.5702 6.81601 36.6204 6.7507C36.6711 6.68471 36.7422 6.63644 36.8313 6.63644H38.3772L38.3762 6.63547C38.3718 6.62984 38.3626 6.61638 38.3625 6.59738V4.03195C38.3625 4.02455 38.364 4.01805 38.3645 4.01633C38.3652 4.01378 38.3658 4.01136 38.3665 4.00949C38.3679 4.00555 38.3705 4.00098 38.3723 3.9968C38.3761 3.98831 38.3811 3.97732 38.387 3.96555C38.3989 3.94177 38.4148 3.91145 38.4309 3.88156C38.4471 3.85163 38.4641 3.82125 38.4778 3.79758C38.4845 3.78598 38.4903 3.77542 38.4954 3.7673C38.4979 3.76322 38.5009 3.75891 38.5032 3.75558C38.5049 3.75308 38.5086 3.74814 38.5129 3.74387L38.5725 3.69699C38.6378 3.65444 38.7196 3.62545 38.8059 3.6091C38.922 3.58713 39.0521 3.58574 39.1741 3.60324Z" fill="black" stroke="black" stroke-width="0.1"/>
<path d="M95.6584 3.60365C95.7801 3.62116 95.8981 3.65811 95.9866 3.71693C96.0755 3.77604 96.1397 3.86115 96.1399 3.97182V6.63686H100.178C100.262 6.63703 100.329 6.68664 100.377 6.75111C100.426 6.81587 100.461 6.90175 100.481 6.99037C100.501 7.07912 100.507 7.17412 100.497 7.2599C100.487 7.34455 100.461 7.42722 100.407 7.48256C100.403 7.48735 100.397 7.49101 100.395 7.49232C100.392 7.49429 100.388 7.49688 100.384 7.49916C100.376 7.50389 100.365 7.51011 100.354 7.51674C100.33 7.53001 100.3 7.54643 100.27 7.56264C100.24 7.57883 100.209 7.59549 100.185 7.60756C100.173 7.61356 100.161 7.61836 100.153 7.62221C100.148 7.62408 100.144 7.62662 100.14 7.62807C100.138 7.62875 100.136 7.62933 100.133 7.63002C100.131 7.6305 100.125 7.63197 100.117 7.63197H96.1399V12.3253C96.1399 12.3595 96.1484 12.419 96.1633 12.4933C96.1781 12.5665 96.1993 12.6518 96.2229 12.7365C96.2465 12.821 96.273 12.9047 96.2991 12.9757C96.3256 13.048 96.3504 13.1043 96.3704 13.1349C96.6016 13.4887 97.0895 13.6076 97.6331 13.6095C98.1725 13.6114 98.7459 13.4981 99.1223 13.4113C99.2573 13.3801 99.4235 13.3263 99.6067 13.2648C99.7889 13.2036 99.9876 13.1348 100.185 13.0734C100.382 13.0119 100.58 12.9574 100.762 12.9259C100.943 12.8946 101.112 12.8847 101.25 12.9162C101.418 12.9545 101.535 13.0774 101.594 13.2228C101.653 13.3679 101.656 13.5404 101.594 13.6867C101.572 13.7384 101.526 13.7877 101.469 13.8331C101.411 13.8794 101.336 13.9256 101.251 13.9718C101.081 14.0644 100.864 14.1586 100.642 14.2443C100.197 14.4157 99.721 14.5589 99.5286 14.6076C98.589 14.8452 97.4237 14.9706 96.4905 14.7052C96.0231 14.5722 95.6115 14.34 95.3167 13.9728C95.0215 13.605 94.847 13.1059 94.8469 12.4454V7.63197H93.3752C93.3678 7.63197 93.3613 7.63048 93.3596 7.63002C93.3571 7.6293 93.3546 7.62875 93.3528 7.62807C93.3488 7.62661 93.3443 7.6241 93.3401 7.62221C93.3315 7.61839 93.3207 7.61347 93.3088 7.60756C93.2847 7.5955 93.2542 7.57885 93.2239 7.56264C93.1935 7.54637 93.1624 7.53005 93.1389 7.51674C93.1273 7.51018 93.1174 7.50385 93.1096 7.49916C93.1059 7.49689 93.1019 7.49527 93.0989 7.4933C93.0976 7.49245 93.0913 7.48779 93.0862 7.48256C93.0336 7.4281 93.0046 7.34643 92.9924 7.26186C92.9802 7.17623 92.9837 7.08056 93.0022 6.99135C93.0206 6.90259 93.0546 6.81642 93.1047 6.75111C93.1555 6.68512 93.2265 6.63686 93.3157 6.63686H94.8616L94.8606 6.63588C94.8562 6.63025 94.847 6.61679 94.8469 6.59779V4.03236C94.8469 4.02496 94.8484 4.01846 94.8489 4.01674C94.8496 4.01419 94.8501 4.01177 94.8508 4.0099C94.8523 4.00597 94.8548 4.00139 94.8567 3.99721C94.8605 3.98872 94.8655 3.97773 94.8713 3.96596C94.8832 3.94218 94.8991 3.91186 94.9153 3.88197C94.9315 3.85204 94.9485 3.82166 94.9622 3.79799C94.9689 3.78639 94.9747 3.77584 94.9797 3.76772C94.9823 3.76363 94.9852 3.75933 94.9875 3.756C94.9893 3.75349 94.993 3.74855 94.9973 3.74428L95.0569 3.6974C95.1222 3.65486 95.2039 3.62586 95.2903 3.60951C95.4064 3.58754 95.5365 3.58615 95.6584 3.60365Z" fill="black" stroke="black" stroke-width="0.1"/>
<path d="M18.7434 3.3558C18.8415 3.36169 18.9219 3.37136 18.9749 3.3851C18.9937 3.38998 19.0232 3.40275 19.053 3.41733C19.0843 3.43268 19.1209 3.45197 19.1555 3.47202C19.19 3.49198 19.2244 3.51348 19.2502 3.53256C19.2629 3.54193 19.2749 3.55209 19.2844 3.56186C19.2891 3.56671 19.2947 3.57248 19.2991 3.57944C19.3029 3.58559 19.3088 3.5979 19.3088 3.61362V13.6644C19.3408 13.6572 19.3739 13.6515 19.4084 13.6429C19.4621 13.6296 19.5197 13.6166 19.5823 13.6146C19.9019 13.6046 20.4122 13.5824 20.9124 13.5775C21.4109 13.5726 21.9068 13.5854 22.1965 13.6458C22.4913 13.7075 22.6522 13.9035 22.6643 14.1195C22.6763 14.3338 22.5409 14.5524 22.2786 14.6566L22.2688 14.6595H22.26L15.4075 14.6751H15.4036C15.1952 14.6566 15.051 14.5839 14.9641 14.4779C14.8774 14.3718 14.8529 14.2385 14.8704 14.1126C14.8878 13.9873 14.947 13.8652 15.0305 13.7738C15.114 13.6824 15.2261 13.6176 15.3508 13.6175H17.9758C17.987 13.6175 17.996 13.6215 18.0002 13.6234C18.005 13.6256 18.0091 13.6283 18.012 13.6302L18.0588 13.6654C18.062 13.6675 18.0657 13.6686 18.0686 13.6703C18.0669 13.6674 18.0659 13.6637 18.0637 13.6605C18.0564 13.6496 18.0484 13.6402 18.0403 13.6302C18.0367 13.6258 18.0313 13.6201 18.0276 13.6146C18.0257 13.6119 18.0239 13.6075 18.0217 13.6029C18.0198 13.5988 18.0159 13.5898 18.0159 13.5785V4.5687C18.0159 4.55733 18.0198 4.54844 18.0217 4.54428C18.0239 4.53962 18.0257 4.53537 18.0276 4.53256C18.0313 4.52699 18.0366 4.52143 18.0403 4.51694C18.0485 4.50681 18.0563 4.4967 18.0637 4.48569C18.0659 4.48245 18.0669 4.47884 18.0686 4.47592C18.0657 4.47762 18.0621 4.47862 18.0588 4.4808C18.0478 4.48828 18.0377 4.49696 18.0276 4.50522C18.0232 4.50881 18.0173 4.51333 18.012 4.51694C18.0092 4.51881 18.0049 4.52165 18.0002 4.52377C17.9959 4.52571 17.9868 4.52866 17.9758 4.52866H15.9475C15.6609 4.52862 15.4258 4.31429 15.4094 4.02573C15.4002 3.86074 15.4428 3.73596 15.5325 3.64682C15.6205 3.5595 15.7476 3.51323 15.8938 3.48959C16.1354 3.45062 16.8078 3.39863 17.4651 3.36948C17.7943 3.35488 18.1212 3.34622 18.3899 3.34702C18.5241 3.34741 18.6444 3.34986 18.7434 3.3558Z" fill="black" stroke="black" stroke-width="0.1"/>
<path d="M72.4868 6.6405C72.9219 6.57267 73.434 6.59612 73.9438 6.6239C74.4563 6.65182 74.9672 6.68445 75.4087 6.63855C75.4331 6.63613 75.4569 6.64273 75.4771 6.65125C75.4975 6.65993 75.518 6.67231 75.5376 6.6864C75.5771 6.71482 75.6178 6.75345 75.6538 6.79285C75.69 6.83244 75.7232 6.87461 75.7476 6.91101C75.7596 6.92895 75.7702 6.94619 75.7778 6.96179C75.7844 6.97517 75.7934 6.99507 75.7935 7.01453V13.6639C75.8252 13.6568 75.8578 13.651 75.8921 13.6425C75.9459 13.6291 76.004 13.6161 76.0669 13.6141C76.3849 13.6042 76.9169 13.5813 77.437 13.5741C77.9552 13.5669 78.4694 13.5757 78.7524 13.6327C79.0318 13.689 79.1911 13.9004 79.2075 14.1219C79.2238 14.3444 79.0955 14.5732 78.8179 14.6581L78.811 14.66H78.8042L71.9517 14.6757H71.9468V14.6747C71.7362 14.6554 71.5894 14.5827 71.4985 14.4774C71.4077 14.372 71.3776 14.24 71.3892 14.1141C71.4007 13.9888 71.4532 13.8661 71.5308 13.7743C71.6082 13.6828 71.7155 13.618 71.8354 13.618H74.4604C74.4718 13.618 74.4807 13.621 74.4849 13.6229C74.4896 13.6251 74.4938 13.6279 74.4966 13.6298C74.5021 13.6334 74.5078 13.6379 74.5122 13.6415C74.5223 13.6497 74.5315 13.6584 74.5425 13.6659C74.5456 13.668 74.5494 13.6691 74.5522 13.6708C74.5505 13.6679 74.5496 13.6643 74.5474 13.661L74.5122 13.6141C74.5103 13.6113 74.5076 13.6072 74.5054 13.6024C74.5035 13.5982 74.4995 13.5893 74.4995 13.578V7.73035C74.4996 7.71338 74.508 7.7 74.5103 7.69617C74.5139 7.69001 74.5183 7.68357 74.522 7.67859C74.5303 7.66741 74.5387 7.65806 74.5464 7.64636C74.5497 7.64125 74.5519 7.63597 74.5542 7.63171H72.3716C72.2718 7.63153 72.1922 7.56565 72.1401 7.48132C72.0875 7.39603 72.0566 7.28355 72.0552 7.1698C72.0537 7.05587 72.0815 6.93595 72.1509 6.83777C72.221 6.73852 72.3315 6.66478 72.4868 6.6405Z" fill="black" stroke="black" stroke-width="0.1"/>
<path d="M75.9131 4.82198L75.9102 4.821C75.8953 4.87216 75.8544 4.9106 75.8066 4.93916C75.7579 4.96832 75.6951 4.99248 75.625 5.01143C75.4844 5.04939 75.3049 5.07093 75.124 5.07686C74.9428 5.08278 74.7568 5.07294 74.6045 5.04659C74.5284 5.03342 74.4593 5.01535 74.4023 4.99287C74.3468 4.97095 74.2969 4.94248 74.2666 4.90303C74.254 4.88661 74.2451 4.86471 74.2383 4.84346C74.2312 4.82154 74.2249 4.79583 74.2197 4.76729C74.2093 4.70992 74.2019 4.63771 74.1963 4.55635C74.1851 4.39311 74.1824 4.1879 74.1865 3.98018C74.1906 3.77227 74.2011 3.55986 74.2168 3.38252C74.2323 3.20752 74.2528 3.06009 74.2783 2.98506L74.2822 2.97432L74.29 2.96651C74.3038 2.95273 74.3226 2.94236 74.3398 2.93526C74.3581 2.92773 74.3803 2.92174 74.4043 2.91573C74.4523 2.90369 74.5138 2.89282 74.583 2.88448C74.7216 2.8678 74.8967 2.85857 75.0732 2.86006C75.2497 2.86156 75.4299 2.87381 75.5771 2.90108C75.6507 2.91472 75.7185 2.93205 75.7734 2.95479C75.8271 2.97701 75.8755 3.00667 75.9043 3.04756L75.9131 3.06123V4.82198Z" fill="black" stroke="black" stroke-width="0.1"/>
</g>
<defs>
<clipPath id="clip0_7_126">
<rect width="100" height="14.9094" fill="white"/>
</clipPath>
</defs>
</svg>
