<svg width="25" height="27" viewBox="0 0 25 27" fill="none" xmlns="http://www.w3.org/2000/svg">
<path fill-rule="evenodd" clip-rule="evenodd" d="M22.3316 0.0298214C22.7922 -0.0945432 23.2651 0.18145 23.3887 0.645858L24.0601 3.16993C24.1832 3.63438 23.909 4.11214 23.4485 4.23661L3.67205 9.58079H24.137C24.6136 9.58106 24.9997 9.97029 25 10.4509V26.1287C25 26.5796 24.6603 26.9505 24.2249 26.9952L24.137 27H1.6811L1.59198 26.9952C1.15661 26.9505 0.816845 26.5795 0.816845 26.1287V10.4509C0.816956 10.2555 0.881107 10.0748 0.988962 9.92955C0.853396 9.81795 0.749678 9.66455 0.700879 9.48131L0.0294975 6.95724C-0.093747 6.49277 0.180527 6.0151 0.641065 5.89056L22.3316 0.0298214ZM4.12492 22.2095C3.88656 22.2095 3.69302 22.4043 3.6928 22.6446C3.6928 22.8851 3.88642 23.0809 4.12492 23.0809H15.3529C15.5913 23.0808 15.785 22.8851 15.785 22.6446C15.7848 22.4043 15.5912 22.2096 15.3529 22.2095H4.12492ZM4.12492 19.5968C3.88651 19.5968 3.69294 19.7914 3.6928 20.0318C3.6928 20.2723 3.88642 20.4681 4.12492 20.4681H21.399C21.6373 20.4679 21.8299 20.2722 21.8299 20.0318C21.8297 19.7916 21.6372 19.597 21.399 19.5968H4.12492ZM4.12492 16.984C3.88646 16.984 3.69286 17.1786 3.6928 17.4191C3.6928 17.6596 3.88642 17.8541 4.12492 17.8541H21.399C21.6373 17.8539 21.8299 17.6594 21.8299 17.4191C21.8298 17.1788 21.6372 16.9842 21.399 16.984H4.12492ZM1.6811 13.0649H2.72723L4.22258 10.4509H1.6811V13.0649ZM3.72332 13.0649H6.27579L7.77236 10.4509H5.21989L3.72332 13.0649ZM7.27309 13.0649H9.82434L11.3209 10.4509H8.76966L7.27309 13.0649ZM10.8216 13.0649H13.3741L14.8707 10.4509H12.3182L10.8216 13.0649ZM14.3714 13.0649H16.9227L18.4192 10.4509H15.868L14.3714 13.0649ZM17.92 13.0649H20.4724L21.969 10.4509H19.4165L17.92 13.0649ZM21.4698 13.0649H24.137V10.4509H22.9663L21.4698 13.0649ZM0.864452 6.73192L1.62128 9.58318L1.53461 9.25599L3.98943 8.59081L1.87519 6.45746L0.864452 6.73192ZM2.83831 6.19738L4.95255 8.33074L7.41835 7.66556L5.30289 5.5322L2.83831 6.19738ZM6.26602 5.27213L8.38148 7.40428L10.8461 6.73911L8.7306 4.60575L6.26602 5.27213ZM9.69495 4.34567L11.8104 6.47903L14.275 5.81385L12.1595 3.6793L9.69495 4.34567ZM13.1227 3.41922L15.2393 5.55258L17.7039 4.8862L15.5885 2.75285L13.1227 3.41922ZM16.5504 2.49277L18.6658 4.62732L21.1316 3.95975L19.0162 1.8264L16.5504 2.49277ZM19.9793 1.56632L22.0947 3.70087L23.2251 3.39525L22.555 0.871179L19.9793 1.56632Z" fill="black"/>
</svg>
