<svg width="25" height="27" viewBox="0 0 25 27" fill="none" xmlns="http://www.w3.org/2000/svg">
<path d="M15.3529 22.2095C15.5912 22.2096 15.7848 22.4043 15.785 22.6446C15.785 22.8851 15.5913 23.0808 15.3529 23.0809H4.12492C3.88642 23.0809 3.6928 22.8851 3.6928 22.6446C3.69301 22.4043 3.88656 22.2095 4.12492 22.2095H15.3529Z" fill="#666666"/>
<path d="M21.399 19.5968C21.6372 19.5969 21.8309 19.7915 21.8311 20.0318C21.8311 20.2722 21.6373 20.4679 21.399 20.4681H4.12492C3.88642 20.4681 3.6928 20.2723 3.6928 20.0318C3.69293 19.7914 3.88651 19.5968 4.12492 19.5968H21.399Z" fill="#666666"/>
<path d="M21.399 16.984C21.6373 16.9842 21.831 17.1787 21.8311 17.4191C21.8311 17.6595 21.6373 17.854 21.399 17.8541H4.12492C3.88642 17.8541 3.6928 17.6596 3.6928 17.4191C3.69285 17.1786 3.88646 16.984 4.12492 16.984H21.399Z" fill="#666666"/>
<path fill-rule="evenodd" clip-rule="evenodd" d="M22.3316 0.0298214C22.7922 -0.0945432 23.2651 0.18145 23.3887 0.645858L24.0601 3.16993C24.1832 3.63438 23.909 4.11214 23.4485 4.23661L3.67205 9.58079H24.137C24.6136 9.58106 24.9997 9.97029 25 10.4509V26.1287C25 26.5796 24.6603 26.9505 24.2249 26.9952L24.137 27H1.6811L1.59199 26.9952C1.15661 26.9505 0.816845 26.5795 0.816845 26.1287V10.4509C0.816956 10.2555 0.881107 10.0748 0.988963 9.92955C0.853396 9.81795 0.749678 9.66455 0.700879 9.48131L0.0294976 6.95724C-0.093747 6.49277 0.180527 6.0151 0.641065 5.89056L22.3316 0.0298214ZM1.6811 26.1287H24.137V13.935H1.6811V26.1287ZM21.4698 13.0649H24.137V10.4509H22.9663L21.4698 13.0649ZM17.92 13.0649H20.4724L21.969 10.4509H19.4165L17.92 13.0649ZM14.3714 13.0649H16.9227L18.4192 10.4509H15.868L14.3714 13.0649ZM10.8216 13.0649H13.3741L14.8707 10.4509H12.3182L10.8216 13.0649ZM7.27309 13.0649H9.82434L11.3209 10.4509H8.76966L7.27309 13.0649ZM3.72332 13.0649H6.27579L7.77236 10.4509H5.21989L3.72332 13.0649ZM1.6811 13.0649H2.72723L4.22258 10.4509H1.6811V13.0649ZM0.864452 6.73192L1.62128 9.58318L1.53461 9.25599L3.98943 8.59081L1.87519 6.45746L0.864452 6.73192ZM2.83831 6.19738L4.95255 8.33074L7.41835 7.66556L5.30289 5.5322L2.83831 6.19738ZM6.26602 5.27213L8.38148 7.40428L10.8461 6.73911L8.7306 4.60575L6.26602 5.27213ZM9.69495 4.34567L11.8104 6.47903L14.275 5.81385L12.1595 3.6793L9.69495 4.34567ZM13.1227 3.41922L15.2393 5.55258L17.7039 4.8862L15.5885 2.75285L13.1227 3.41922ZM16.5504 2.49277L18.6658 4.62732L21.1316 3.95975L19.0162 1.8264L16.5504 2.49277ZM19.9793 1.56632L22.0947 3.70087L23.2251 3.39525L22.555 0.871179L19.9793 1.56632Z" fill="#666666"/>
</svg>
