<svg width="10" height="11" viewBox="0 0 10 11" fill="none" xmlns="http://www.w3.org/2000/svg">
<path d="M4.7373 0C6.49496 0 7.7666 1.21776 7.7666 2.80273V3.75098H7.86035C8.7329 3.75098 9.49981 4.39192 9.5 5.24414V9C9.48497 9.85489 8.73882 10.5 7.86035 10.5H1.63574C0.786791 10.4878 0.0600669 9.89567 0.00488281 9.09375C0.00211614 9.06151 7.27621e-06 9.02899 0 8.99609V5.24414C0.00081282 5.19858 0.00396244 5.1536 0.00976562 5.10938L0.0117188 5.08203C0.109427 4.30695 0.816211 3.74023 1.63965 3.74023H1.7334V2.80273C1.7334 2.73499 1.73853 2.66804 1.74316 2.60156C1.74484 2.57976 1.74388 2.55778 1.74609 2.53613C1.87897 1.10484 3.07709 0.000177639 4.7373 0ZM1.63965 4.87305C1.37203 4.87305 1.20137 5.06171 1.20117 5.24414V8.99609C1.20133 9.17855 1.37201 9.36719 1.63965 9.36719H7.86035C8.12799 9.36719 8.29867 9.17855 8.29883 8.99609V5.24414C8.29863 5.06171 8.12797 4.87305 7.86035 4.87305H1.63965ZM4.75 5.62695C5.25119 5.61605 5.68848 5.98825 5.68848 6.49902C5.68834 6.77925 5.55113 7.01759 5.34473 7.17578V8.06348C5.34473 8.40803 5.0417 8.62402 4.75 8.62402C4.43385 8.62402 4.15527 8.38596 4.15527 8.06348V7.17578C3.94887 7.01759 3.81166 6.77925 3.81152 6.49902C3.81152 5.99343 4.25547 5.62695 4.75 5.62695ZM4.7373 1.12109C3.61481 1.12127 2.92188 1.88204 2.92188 2.80273V3.74023H6.57812V2.80273C6.57812 1.86644 5.85474 1.12109 4.7373 1.12109ZM7.25684 2.60547C7.25561 2.59081 7.2554 2.5761 7.25391 2.56152C7.25525 2.57612 7.25574 2.59079 7.25684 2.60547Z" fill="#949595"/>
</svg>
