<svg width="41" height="41" viewBox="0 0 41 41" fill="none" xmlns="http://www.w3.org/2000/svg">
<path d="M12.5156 24.7842C13.3828 24.7844 14.0858 25.4852 14.0859 26.3545C14.0859 27.222 13.3831 27.9246 12.5156 27.9248H8.6543C7.78672 27.9247 7.08398 27.2221 7.08398 26.3545C7.08407 25.487 7.78678 24.7843 8.6543 24.7842H12.5156Z" fill="black" stroke="black" stroke-width="0.5"/>
<path d="M24.3779 18.4629C25.2474 18.4629 25.9482 19.1658 25.9482 20.0332C25.9482 20.9009 25.2456 21.6035 24.3779 21.6035H8.6543C7.78672 21.6034 7.08398 20.9008 7.08398 20.0332C7.08407 19.1657 7.78678 18.463 8.6543 18.4629H24.3779Z" fill="black" stroke="black" stroke-width="0.5"/>
<path d="M24.3779 12.1411C25.2476 12.1411 25.9482 12.8459 25.9482 13.7114C25.9482 14.5791 25.2456 15.2817 24.3779 15.2817H8.6543C7.78672 15.2816 7.08398 14.579 7.08398 13.7114C7.08407 12.8439 7.78678 12.1412 8.6543 12.1411H24.3779Z" fill="black" stroke="black" stroke-width="0.5"/>
<path d="M35.2432 0.25V0.256836C38.0912 0.380351 40.3643 2.7309 40.3643 5.60449L40.3633 11.9395C40.363 13.5859 39.0243 14.9258 37.376 14.9258H32.7812V36.9258C32.7811 38.5196 31.4845 39.8164 29.8906 39.8164H3.14062C1.54695 39.8162 0.250103 38.5195 0.25 36.9258V5.62012L0.256836 5.34473C0.400781 2.51496 2.74861 0.257074 5.61328 0.256836H34.9355C34.9451 0.255306 34.974 0.25 35.0078 0.25H35.2432ZM5.61328 3.39746C4.38816 3.39772 3.3916 4.39494 3.3916 5.62012V36.6758H29.6406V5.62012C29.6406 4.86691 29.8124 4.0912 30.127 3.39746H5.61328ZM35.0322 3.39258C33.815 3.41833 32.7932 4.38177 32.793 5.60645V11.7822H37.2236V5.60352C37.2236 4.39031 36.2421 3.4032 35.0322 3.39258Z" fill="black" stroke="black" stroke-width="0.5"/>
</svg>
