<svg width="17" height="14" viewBox="0 0 17 14" fill="none" xmlns="http://www.w3.org/2000/svg">
<path d="M13.5998 7C12.0197 7 10.7009 5.88037 10.3208 4.37521H0.850245C0.380897 4.37521 0 3.98395 0 3.5C0 3.01605 0.380897 2.62479 0.850245 2.62479H10.3208C10.7009 1.11963 12.0205 -2.77692e-07 13.5998 -2.77692e-07C15.4748 -2.77692e-07 17 1.56996 17 3.5C17 5.43004 15.4748 7 13.5998 7ZM13.5998 1.75042C12.6627 1.75042 11.9002 2.5354 11.9002 3.5C11.9002 4.4646 12.6628 5.24958 13.5998 5.24958C14.5369 5.24958 15.2995 4.4646 15.2995 3.5C15.2995 2.5354 14.5369 1.75042 13.5998 1.75042ZM3.40016 7C4.97952 7 6.29911 8.11963 6.67915 9.62479H16.1498C16.6199 9.62479 17 10.0169 17 10.5C17 10.9831 16.6199 11.3752 16.1498 11.3752H6.67915C6.29905 12.8804 4.97948 14 3.40016 14C1.52518 14 0 12.43 0 10.5C0 8.56996 1.52518 7 3.40016 7ZM3.40016 12.2496C4.33806 12.2496 5.09984 11.4646 5.09984 10.5C5.09984 9.53456 4.33804 8.7496 3.40016 8.7496C2.46228 8.7496 1.70049 9.53458 1.70049 10.4992C1.70049 11.4646 2.46228 12.2496 3.40016 12.2496Z" fill="black"/>
</svg>
