<svg width="49" height="41" viewBox="0 0 49 41" fill="none" xmlns="http://www.w3.org/2000/svg">
<path fill-rule="evenodd" clip-rule="evenodd" d="M10.01 22.5638C10.3427 22.0408 9.98634 21.3051 9.56073 20.8546C9.4228 20.7085 9.30847 20.5429 9.22237 20.3624C9.09109 20.0872 8.95981 19.8121 8.95981 19.5369V17.6107V13.6465C8.95981 13.4803 8.82512 13.3456 8.65896 13.3456C8.59839 13.3456 8.53922 13.3639 8.4892 13.3981L5.54655 15.4094C4.75887 15.9597 4.23376 16.2349 3.44608 15.2718L0.352684 12.1649C0.314543 12.1266 0.278983 12.0856 0.249668 12.0402C-0.0978194 11.5018 -0.0825827 10.8469 0.295378 10.3188C0.486176 10.1188 0.815624 9.99153 1.13259 9.93687C1.26101 9.91473 1.32792 9.74991 1.23796 9.65563C1.22241 9.63934 1.21061 9.61979 1.20454 9.59811C1.09295 9.19984 1.2147 8.68743 1.4576 8.41359C1.4697 8.39995 1.48721 8.39262 1.50544 8.39262C1.55374 8.39262 1.58603 8.34289 1.56638 8.29877L0.761706 6.49165C0.713913 6.38432 0.684279 6.25159 0.696454 6.13474C0.715923 5.94786 0.900796 5.85299 1.04851 5.73688L1.28943 5.54752C1.32684 5.51811 1.36088 5.48445 1.39841 5.45519C1.42773 5.43234 1.45613 5.41661 1.48207 5.40799C1.60382 5.36755 1.63286 5.5645 1.68088 5.68346L3.05224 9.08054L3.44608 10.1812L3.54283 10.5868C3.56545 10.6816 3.63355 10.7671 3.63566 10.8645C3.6366 10.908 3.62397 10.9515 3.61024 10.995C3.58128 11.0867 3.5304 11.1771 3.45156 11.2322C3.30829 11.3323 3.28326 11.5344 3.39778 11.6665L3.89423 12.2388C4.23253 12.6288 4.81592 12.6881 5.2258 12.3742L7.90958 10.3188C8.82853 9.63087 9.61621 9.35571 10.5352 9.35571H13.5546C14.3423 9.35571 14.8674 9.3557 15.6551 9.90604L16.2643 10.2607C16.6112 10.4628 17.0422 10.4319 17.3873 10.2268C18.2397 9.72023 19.2882 9.35571 20.2498 9.35571H36.9223C38.7602 9.35571 40.7294 10.7315 41.5171 12.1074C42.3525 13.7334 43.1879 15.3594 44.122 17.0888C44.296 17.4109 44.633 17.6107 44.999 17.6107H47.6872C48.3436 17.6107 49 18.1611 49 18.9866V19.9497C49 21.0503 48.081 22.0134 47.0308 22.0134C46.909 22.0134 46.8289 22.1405 46.8813 22.2504L47.0308 22.5638C48.3142 24.8503 49.0958 31.8707 47.0449 35.5262C46.9533 35.6894 46.8995 35.871 46.8995 36.0582V39.6242C46.8995 40.4497 46.3744 41 45.5867 41H43.6175C42.9612 41 42.3048 40.4497 42.3048 39.6242V38.8356C42.3048 38.2833 41.857 37.8356 41.3048 37.8356H15.9987C15.4464 37.8356 14.9987 38.2833 14.9987 38.8356V39.6242C14.9987 40.4497 14.3423 41 13.6859 41H11.7167C10.929 41 10.4039 40.4497 10.4039 39.6242V36.3714C10.4039 36.1605 10.3353 35.957 10.2216 35.7794C7.94959 32.2295 8.73032 24.9779 10.01 22.5638ZM35.0844 12.6577C36.6597 12.6577 37.9725 14.0336 37.9725 15.547C37.9725 17.198 36.6597 18.5738 35.0844 18.5738C33.509 18.5738 32.3275 17.198 32.3275 15.547C32.3275 14.0336 33.509 12.6577 35.0844 12.6577ZM28.4658 22.0134C28.8243 22.0134 29.1555 21.8214 29.3336 21.5103L29.8332 20.6376C30.4896 19.6745 31.5399 19.6745 32.5901 19.6745H37.1849C38.2351 19.6745 39.4166 19.6745 39.9417 20.6376L40.5637 21.5688C40.7493 21.8466 41.0613 22.0134 41.3953 22.0134H41.501C42.2039 22.0134 42.6875 21.3074 42.4334 20.652L39.5479 13.2081C39.1541 12.3826 37.4474 11.6946 36.9223 11.6946H20.2498C20.0416 11.6946 19.6681 11.7812 19.3261 11.8856C19.2276 11.9157 19.2173 12.0479 19.3085 12.0957C19.3233 12.1034 19.3395 12.1079 19.3561 12.1089L23.9257 12.3826C24.582 12.3826 24.9759 13.0705 24.8446 13.7584C24.7133 14.3087 24.1882 14.7215 23.5318 14.7215L18.9994 14.5895C18.8715 14.5858 18.7455 14.5576 18.6283 14.5064L18.2054 14.3217C17.677 14.091 17.0634 14.3537 16.8658 14.8954L15.8873 17.5774C15.6901 18.1179 15.9887 18.713 16.5399 18.8781L19.1996 19.6745C19.856 19.8121 20.2498 20.0872 20.3811 20.3624L21.1367 21.5502C21.3202 21.8387 21.6384 22.0134 21.9804 22.0134H28.4658ZM34.9531 4.95302L35.2194 7.27886C35.2874 7.87233 34.8233 8.39262 34.2259 8.39262H32.5296C31.9323 8.39262 31.4681 7.87233 31.5361 7.27886L31.8024 4.95302C31.9337 3.98993 34.8218 3.98993 34.9531 4.95302ZM39.1541 6.32886C39.1541 6.6328 38.9077 6.87919 38.6037 6.87919H37.0788C36.7749 6.87919 36.5285 6.6328 36.5285 6.32886C36.5285 6.02492 36.7749 5.77852 37.0788 5.77852H38.6037C38.9077 5.77852 39.1541 6.02492 39.1541 6.32886ZM27.6015 6.32886C27.6015 6.02492 27.8479 5.77852 28.1518 5.77852H29.6767C29.9807 5.77852 30.2271 6.02492 30.2271 6.32886C30.2271 6.6328 29.9807 6.87919 29.6767 6.87919H28.1518C27.8479 6.87919 27.6015 6.6328 27.6015 6.32886ZM37.6107 1.8221C37.8151 2.03635 37.8209 2.37165 37.6239 2.5928L36.5448 3.80447C36.3239 4.05259 35.9382 4.05922 35.7088 3.81884C35.5044 3.60459 35.4986 3.26929 35.6956 3.04814L36.7746 1.83647C36.9956 1.58835 37.3813 1.58172 37.6107 1.8221ZM29.0271 1.80794C29.2516 1.57264 29.6272 1.57264 29.8517 1.80794L31.0332 3.04619C31.2433 3.26638 31.2433 3.61281 31.0332 3.833C30.8087 4.0683 30.4331 4.0683 30.2086 3.833L29.0271 2.59475C28.817 2.37456 28.817 2.02813 29.0271 1.80794ZM33.3778 0C33.6678 0 33.9029 0.235103 33.9029 0.525118V2.22656C33.9029 2.51657 33.6678 2.75168 33.3778 2.75168C33.0877 2.75168 32.8526 2.51657 32.8526 2.22656V0.525118C32.8526 0.235103 33.0877 0 33.3778 0ZM8.82853 4.95302C8.82853 3.30201 10.1413 2.06376 11.7167 2.06376C13.292 2.06376 14.6048 3.30201 14.6048 4.95302C14.6048 6.60403 13.292 7.97987 11.7167 7.97987C10.1413 7.97987 8.82853 6.60403 8.82853 4.95302ZM22.7441 31.2315H34.428C34.8218 31.2315 35.0844 31.6443 35.0844 32.057C35.0844 32.4698 34.8218 32.745 34.428 32.745H22.7441C22.3503 32.745 22.0877 32.4698 22.0877 32.057C22.0877 31.6443 22.3503 31.2315 22.7441 31.2315ZM15.2612 26.8289C16.7053 26.8289 18.2806 28.0671 18.6745 29.5805C19.0683 31.094 18.2806 32.3322 16.8366 32.3322C15.3925 32.3322 13.8171 31.094 13.4233 29.5805C13.0295 28.0671 13.8171 26.8289 15.2612 26.8289ZM41.7796 26.8289C40.3356 26.8289 38.8915 28.0671 38.4977 29.5805C38.1038 31.094 38.8915 32.3322 40.3356 32.3322C41.7796 32.3322 43.2237 31.094 43.7488 29.5805C44.1427 28.0671 43.2237 26.8289 41.7796 26.8289Z" fill="#1A1A1A"/>
</svg>
