<svg width="13" height="13" viewBox="0 0 13 13" fill="none" xmlns="http://www.w3.org/2000/svg">
<path d="M6.44531 0C6.83171 0.000106448 7.14551 0.316536 7.14551 0.706055V6H12.2939C12.6835 6 13 6.3137 13 6.7002C12.9999 7.0866 12.6835 7.40039 12.2939 7.40039H7.14551V12.2939C7.14551 12.6835 6.83171 12.9999 6.44531 13C6.05882 13 5.74512 12.6835 5.74512 12.2939V7.40039H0.706055C0.316536 7.40039 0.000106309 7.0866 0 6.7002C-1.70293e-08 6.3137 0.31647 6 0.706055 6H5.74512V0.706055C5.74512 0.31647 6.05882 0 6.44531 0Z" fill="white"/>
</svg>
