<svg width="20" height="17" viewBox="0 0 20 17" fill="none" xmlns="http://www.w3.org/2000/svg">
<path d="M17.7888 17H2.21144C0.991903 17 0 16.0365 0 14.8524V2.32338C0 1.04211 1.07327 0 2.39241 0H6.79921C7.31486 0 7.80582 0.215735 8.14599 0.591985L9.70649 2.31729C9.78688 2.4064 9.90569 2.45343 10.0249 2.4561L17.5729 2.40488C18.2152 2.40259 18.8291 2.64194 19.2881 3.08445C19.7473 3.52716 20 4.11705 20 4.7454V14.8524C20 16.0367 19.0079 17 17.7888 17ZM2.39241 1.33287C1.83009 1.33287 1.37247 1.77729 1.37247 2.32338V14.8524C1.37247 15.3015 1.74892 15.6671 2.21144 15.6671H17.7886C18.2511 15.6671 18.6273 15.3015 18.6273 14.8524V4.7454C18.6273 4.47483 18.5185 4.22101 18.3209 4.03041C18.125 3.84152 17.8658 3.73775 17.5897 3.73775H17.5823L10.0345 3.78897C9.51552 3.78992 9.01868 3.57685 8.67518 3.19718L7.11448 1.47168C7.03488 1.38352 6.91979 1.33287 6.79901 1.33287H2.39241Z" fill="black"/>
</svg>
