<svg width="15" height="20" viewBox="0 0 15 20" fill="none" xmlns="http://www.w3.org/2000/svg">
<path d="M7.29021 0C3.27037 0 0 3.27038 0 7.29041C0 9.96395 1.48603 12.4346 3.82006 13.7014V14.8018C3.82006 15.1738 4.12166 15.4754 4.49369 15.4754H10.0011C10.3731 15.4754 10.6747 15.1738 10.6747 14.8018V13.7469C13.0611 12.4941 14.5804 10.0063 14.5804 7.2906C14.5804 3.27057 11.31 0 7.29021 0Z" fill="black"/>
<path d="M10.044 16.3214C9.77785 16.3214 9.55383 16.5016 9.48685 16.7464H5.10286C5.05013 16.4819 4.81666 16.2825 4.53663 16.2825C4.21771 16.2825 3.95923 16.541 3.95923 16.8599V17.3238C3.95923 17.6169 4.17845 17.8563 4.46137 17.8937C4.34474 18.0509 4.30894 18.2626 4.3892 18.457C4.67924 19.1609 5.41773 20 7.29042 20C8.71236 20 9.74012 19.4584 10.1839 18.4747C10.2733 18.2767 10.2396 18.0565 10.1187 17.8939C10.402 17.8569 10.6216 17.6175 10.6216 17.324V16.899C10.6216 16.5801 10.3631 16.3216 10.0442 16.3216L10.044 16.3214ZM7.29042 18.845C6.29999 18.845 5.68315 18.5665 5.45719 18.017C5.43987 17.9747 5.41696 17.9366 5.39136 17.901H9.18852C9.16677 17.9314 9.14753 17.9641 9.13155 17.9993C8.79936 18.7351 7.83568 18.845 7.29062 18.845H7.29042Z" fill="black"/>
</svg>
