<svg width="16" height="19" viewBox="0 0 16 19" fill="none" xmlns="http://www.w3.org/2000/svg">
<path d="M7.54884 11.7014H4.2471C1.93522 11.7014 0.0541382 13.5824 0.0541382 15.8944V16.3175C0.0541382 16.673 0.342359 16.9612 0.697848 16.9612H11.0981C11.4536 16.9612 11.7418 16.673 11.7418 16.3175V15.8944C11.7418 13.5824 9.86105 11.7014 7.54884 11.7014ZM1.35008 15.6738C1.46322 14.1743 2.71941 12.9889 4.24726 12.9889H7.54901C9.07702 12.9889 10.3332 14.1743 10.4463 15.6738H1.35025H1.35008Z" fill="#7F7E7E"/>
<path d="M12.0187 11.5662C11.6648 11.544 11.3583 11.8136 11.3361 12.1684C11.3137 12.5233 11.5834 12.8289 11.9383 12.8512C13.4637 12.9468 14.6584 14.2206 14.6584 15.751V16.3562C14.6584 16.7117 14.9466 17 15.3021 17C15.6576 17 15.9458 16.7117 15.9458 16.3562V15.751C15.9458 13.5424 14.2209 11.7042 12.0187 11.5662Z" fill="#7F7E7E"/>
<path d="M5.89779 10.777C7.76359 10.777 9.28145 9.25893 9.28145 7.39314C9.28145 5.52734 7.76343 4.00932 5.89779 4.00932C4.03216 4.00932 2.51398 5.52734 2.51398 7.39314C2.51398 9.25893 4.032 10.777 5.89779 10.777ZM5.89779 5.29673C7.05374 5.29673 7.99404 6.23719 7.99404 7.39314C7.99404 8.54908 7.05358 9.48954 5.89779 9.48954C4.74201 9.48954 3.8014 8.54908 3.8014 7.39314C3.8014 6.23719 4.74185 5.29673 5.89779 5.29673Z" fill="#7F7E7E"/>
<path d="M8.9666 3.92177C10.4518 3.92177 11.6599 5.13001 11.6599 6.61505C11.6599 7.51125 11.2157 8.3463 10.4719 8.84888C10.1773 9.04795 10.0998 9.44801 10.2989 9.74267C10.4233 9.92677 10.6262 10.0261 10.8329 10.0261C10.9569 10.0261 11.0821 9.99034 11.1925 9.91567C12.2912 9.17331 12.9471 7.93948 12.9471 6.61505C12.9471 4.42 11.1613 2.63435 8.96643 2.63435C8.61094 2.63435 8.32272 2.92257 8.32272 3.27806C8.32272 3.63354 8.61094 3.92177 8.96643 3.92177H8.9666Z" fill="#7F7E7E"/>
</svg>
