<svg width="16" height="19" viewBox="0 0 16 19" fill="none" xmlns="http://www.w3.org/2000/svg">
<path d="M12.7302 3.05384H3.26942C2.17286 3.05384 1.28085 3.94602 1.28085 5.04258V15.0111C1.28085 16.1076 2.17286 16.9998 3.26942 16.9998H12.7302C13.8268 16.9998 14.7189 16.1076 14.7189 15.0111V5.04258C14.7189 3.94602 13.8268 3.05384 12.7302 3.05384ZM13.4315 15.0111C13.4315 15.3984 13.1175 15.7124 12.7302 15.7124H3.26942C2.88223 15.7124 2.56827 15.3984 2.56827 15.0111V5.04258C2.56827 4.65523 2.88223 4.34126 3.26942 4.34126H12.7302C13.1175 4.34126 13.4315 4.65523 13.4315 5.04258V15.0111Z" fill="#7F7E7E"/>
<path d="M10.8467 6.58894H5.03576C4.7691 6.58894 4.55298 6.80506 4.55298 7.07172C4.55298 7.33837 4.7691 7.5545 5.03576 7.5545H10.8467C11.1133 7.5545 11.3295 7.33837 11.3295 7.07172C11.3295 6.80506 11.1133 6.58894 10.8467 6.58894Z" fill="#7F7E7E"/>
<path d="M10.8467 9.23326H5.03576C4.7691 9.23326 4.55298 9.44939 4.55298 9.71604C4.55298 9.9827 4.7691 10.1988 5.03576 10.1988H10.8467C11.1133 10.1988 11.3295 9.9827 11.3295 9.71604C11.3295 9.44939 11.1133 9.23326 10.8467 9.23326Z" fill="#7F7E7E"/>
<path d="M7.57713 11.8776H5.03576C4.7691 11.8776 4.55298 12.0937 4.55298 12.3604C4.55298 12.627 4.7691 12.8432 5.03576 12.8432H7.57713C7.84378 12.8432 8.05991 12.627 8.05991 12.3604C8.05991 12.0937 7.84378 11.8776 7.57713 11.8776Z" fill="#7F7E7E"/>
</svg>
