<svg width="16" height="19" viewBox="0 0 16 19" fill="none" xmlns="http://www.w3.org/2000/svg">
<path d="M15.4759 9.8439C15.3987 9.57568 15.1501 9.39057 14.867 9.39057H13.8615V8.31606H14.7411C15.0906 8.31606 15.3739 8.03715 15.3739 7.69311C15.3739 7.34906 15.0906 7.07015 14.7411 7.07015H13.8615V2.71195C13.8615 2.31878 13.5377 2 13.1383 2C12.7389 2 12.4151 2.31878 12.4151 2.71195V2.99335H3.49036V2.71195C3.49036 2.31878 3.16654 2 2.76715 2C2.36776 2 2.04394 2.31878 2.04394 2.71195V7.07015H1.19579C0.846304 7.07015 0.562987 7.34906 0.562987 7.69311C0.562987 8.03715 0.846304 8.31606 1.19579 8.31606H2.04394V9.39057H1.13288C0.849746 9.39057 0.601136 9.57586 0.523933 9.8439C0.446912 10.1121 0.5601 10.3982 0.80147 10.5441L6.79198 14.1708L2.37282 16.8463C2.07522 17.0266 1.98229 17.4101 2.16544 17.7033C2.34859 17.9964 2.73858 18.0877 3.036 17.9076L8.0001 14.9023L12.9642 17.9076C13.0674 17.9703 13.1819 18 13.2951 18C13.5075 18 13.7151 17.8946 13.8346 17.7033C14.0177 17.4103 13.9248 17.0266 13.6272 16.8463L9.20803 14.1708L15.1987 10.5441C15.4399 10.3982 15.5529 10.1121 15.4759 9.8439ZM12.4151 7.02387V9.39057H3.49036V7.02387H12.4151ZM7.99992 13.4396L4.26943 11.1811H11.7302L7.99992 13.4396Z" fill="#7F7E7E"/>
</svg>
