<svg width="16" height="19" viewBox="0 0 16 19" fill="none" xmlns="http://www.w3.org/2000/svg">
<path d="M15.4827 7.10322H1.97742L14.8946 2.97067C15.0165 2.93156 15.1179 2.84579 15.1767 2.73201C15.2352 2.61808 15.2463 2.4858 15.2072 2.36382L14.8369 1.20628C14.5455 0.295288 13.5674 -0.20889 12.6562 0.0827062L1.24071 3.7349C0.329712 4.02633 -0.174305 5.0046 0.117131 5.91543L0.487419 7.07297C0.513328 7.15375 0.561123 7.22407 0.622596 7.2804C0.55372 7.36392 0.510753 7.46932 0.510753 7.58599V14.8464C0.510753 15.8028 1.28883 16.5811 2.24536 16.5811H14.2309C15.1873 16.5811 15.9655 15.803 15.9655 14.8464V7.58599C15.9655 7.31934 15.7494 7.10322 15.4827 7.10322ZM5.9159 3.25293L5.30728 5.02423L3.45214 5.61772L4.06076 3.84642L5.9159 3.25293ZM7.58662 2.7185L9.11042 3.80748L6.26334 4.71831L6.87196 2.94701L7.58679 2.71834L7.58662 2.7185ZM10.3975 1.81909L11.9213 2.90807L10.0662 3.50156L8.54236 2.41258L10.3975 1.81909ZM12.9504 1.00239C13.028 0.97761 13.1068 0.965702 13.1842 0.965702C13.5098 0.965702 13.8128 1.17426 13.9173 1.50046L14.1405 2.19807L12.8772 2.60231L11.3534 1.51333L12.9504 1.00239ZM1.53504 4.65458L3.10502 4.15234L2.49641 5.92364L1.26018 6.31919L1.03698 5.62142C0.907755 5.2175 1.13112 4.78365 1.53504 4.65458ZM15 14.8464C15 15.2705 14.6549 15.6155 14.2309 15.6155H2.24552C1.82149 15.6155 1.47646 15.2705 1.47646 14.8464V8.06877H15V14.8464Z" fill="#7F7E7E"/>
<path d="M3.80032 11.1849H12.4093C12.6316 11.1849 12.8116 11.0048 12.8116 10.7826C12.8116 10.5604 12.6316 10.3803 12.4093 10.3803H3.80032C3.57809 10.3803 3.39801 10.5604 3.39801 10.7826C3.39801 11.0048 3.57809 11.1849 3.80032 11.1849Z" fill="#7F7E7E"/>
<path d="M3.80032 13.5429H9.22816C9.4504 13.5429 9.63047 13.3628 9.63047 13.1406C9.63047 12.9183 9.4504 12.7383 9.22816 12.7383H3.80032C3.57809 12.7383 3.39801 12.9183 3.39801 13.1406C3.39801 13.3628 3.57809 13.5429 3.80032 13.5429Z" fill="#7F7E7E"/>
</svg>
