<svg width="17" height="13" viewBox="0 0 17 13" fill="none" xmlns="http://www.w3.org/2000/svg">
<path d="M7.30295 0C7.69955 0.000129472 8.02125 0.329975 8.02125 0.736842C8.02125 1.14371 7.69955 1.47355 7.30295 1.47368H0.7183C0.321594 1.47368 0 1.14379 0 0.736842C0 0.329895 0.321594 0 0.7183 0H7.30295Z" fill="black"/>
<path d="M16.2817 5.52632C16.6783 5.52645 17 5.85629 17 6.26316C17 6.67002 16.6783 6.99987 16.2817 7H0.7183C0.321594 7 0 6.6701 0 6.26316C0 5.85621 0.321594 5.52632 0.7183 5.52632H16.2817Z" fill="black"/>
<path d="M10.8945 11.0526C11.291 11.0528 11.6128 11.3826 11.6128 11.7895C11.6128 12.1963 11.291 12.5262 10.8945 12.5263H0.7183C0.321594 12.5263 0 12.1964 0 11.7895C0 11.3825 0.321594 11.0526 0.7183 11.0526H10.8945Z" fill="black"/>
</svg>
